<?xml version="1.0" encoding="UTF-8" standalone="no"?>
<svg
   version="1.0"
   width="28.000000pt"
   height="28.000000pt"
   viewBox="0 0 28.000000 28.000000"
   preserveAspectRatio="xMidYMid meet"
   id="svg2"
   sodipodi:docname="parrot_icon_colour.svg"
   inkscape:version="1.4.2 (f4327f4, 2025-05-13)"
   xmlns:inkscape="http://www.inkscape.org/namespaces/inkscape"
   xmlns:sodipodi="http://sodipodi.sourceforge.net/DTD/sodipodi-0.dtd"
   xmlns="http://www.w3.org/2000/svg"
   xmlns:svg="http://www.w3.org/2000/svg">
  <defs
     id="defs2" />
  <sodipodi:namedview
     id="namedview2"
     pagecolor="#ffffff"
     bordercolor="#000000"
     borderopacity="0.25"
     inkscape:showpageshadow="2"
     inkscape:pageopacity="0.0"
     inkscape:pagecheckerboard="0"
     inkscape:deskcolor="#d1d1d1"
     inkscape:document-units="pt"
     inkscape:zoom="11.0517"
     inkscape:cx="-33.976673"
     inkscape:cy="1.6739506"
     inkscape:window-width="2560"
     inkscape:window-height="1369"
     inkscape:window-x="1192"
     inkscape:window-y="-8"
     inkscape:window-maximized="1"
     inkscape:current-layer="svg2" />
  <metadata
     id="metadata1">
Created by potrace 1.16, written by Peter Selinger 2001-2019
</metadata>
  <g
     transform="translate(0.000000,28.000000) scale(0.100000,-0.100000)"
     fill="#000000"
     stroke="none"
     id="g2">
    <path
       d="M108 220 c-38 -23 -75 -118 -41 -108 4 2 20 -10 35 -25 32 -32 66 -34 102 -6 45 36 29 102 -34 134 -34 17 -39 18 -62 5z m69 -20 c52 -32 58 -93 11 -119 -35 -20 -84 -5 -81 25 1 10 -2 35 -7 54 -8 29 -7 37 7 48 23 16 32 15 70 -8z m-87 -44 c0 -8 3 -23 6 -33 4 -14 4 -15 -4 -4 -5 7 -15 10 -21 7 -12 -8 -14 4 -5 28 8 20 24 21 24 2z"
       id="path1" />
    <path
       d="M130 170 c0 -5 5 -10 10 -10 6 0 10 5 10 10 0 6 -4 10 -10 10 -5 0 -10 -4 -10 -10z"
       id="path2" />
  </g>
  <path
     style="fill:#2ca02c;stroke-width:0.0319909"
     d="m 19.594402,27.698609 c -0.955351,-0.09583 -1.795039,-0.297593 -2.515234,-0.604371 -1.188227,-0.506142 -2.04129,-1.243209 -2.476676,-2.13991 -0.287884,-0.59291 -0.367286,-1.064997 -0.311866,-1.854204 0.07976,-1.135806 -0.168799,-3.503618 -0.579579,-5.521147 -0.154258,-0.757637 -0.217963,-1.028853 -0.450848,-1.919451 -0.4078,-1.559503 -0.537589,-2.249937 -0.565288,-3.007141 -0.02584,-0.706377 0.05059,-1.118478 0.299611,-1.615538 0.351793,-0.702192 1.102746,-1.3748033 2.354836,-2.109169 1.581184,-0.9273838 2.796384,-0.980733 4.628934,-0.2032176 1.24993,0.5303214 3.744062,1.9697026 4.782633,2.7600936 1.928963,1.468009 3.337089,3.327564 4.045651,5.342638 0.143413,0.407852 0.307859,1.052213 0.387804,1.519566 0.08582,0.501679 0.119631,1.650531 0.06322,2.148093 -0.241048,2.126265 -1.319311,3.975491 -3.089081,5.297785 -1.396386,1.043319 -2.997546,1.680522 -4.718652,1.877851 -0.390321,0.04475 -1.519131,0.06186 -1.855469,0.02812 z M 19.02936,15.96345 c 0.367771,-0.09579 0.686022,-0.37109 0.864533,-0.747849 0.09381,-0.19798 0.100351,-0.234985 0.09973,-0.563787 -7.81e-4,-0.415362 -0.06742,-0.624658 -0.282677,-0.887834 -0.346713,-0.423894 -1.066896,-0.567918 -1.59772,-0.319515 -0.525987,0.246139 -0.818147,0.725983 -0.782152,1.284607 0.05375,0.834121 0.893006,1.444126 1.698284,1.234378 z"
     id="path3"
     transform="scale(0.75)" />
  <path
     style="fill:#ffdd55;stroke-width:0.0452419"
     d="m 12.906255,22.244067 c -0.08611,-0.09531 -0.303496,-0.369641 -0.483078,-0.609617 -0.377988,-0.505102 -0.63379,-0.738836 -1.044837,-0.954697 -0.407667,-0.214087 -0.74661,-0.302568 -1.169663,-0.305342 -0.413745,-0.0027 -0.5453839,0.03341 -1.0237405,0.280951 -0.5187471,0.26844 -0.8079158,0.22585 -1.0009426,-0.147422 -0.1916624,-0.370635 -0.103539,-1.29855 0.2332842,-2.456419 0.4066668,-1.397965 0.7287069,-2.065974 1.2784013,-2.651793 0.6387666,-0.680744 1.2918066,-0.843967 1.7537826,-0.438347 0.334263,0.293487 0.465976,0.691693 0.520803,1.574536 0.09061,1.458973 0.295694,2.544065 0.895939,4.740279 0.335558,1.227761 0.338472,1.298188 0.04005,0.967871 z"
     id="path5"
     transform="scale(0.75)" />
  <path
     style="fill:#ff9d9d;stroke-width:0.0639817;fill-opacity:1"
     d="M 17.417969 8.6191406 C 16.386448 8.9445372 15.378648 9.3654377 14.462363 9.9439935 C 13.675537 10.467617 13.190791 11.392325 13.1875 12.335938 C 13.177643 13.455 13.261821 14.586268 13.536445 15.673841 C 13.777122 16.691087 14.563869 17.510155 15.520256 17.90002 C 16.523651 18.375064 17.564772 18.84506 18.680152 18.961322 C 19.695091 19.02457 20.694414 18.762748 21.703957 18.701832 C 22.536158 18.65825 23.397754 18.709477 24.171612 19.043458 C 25.057876 19.390615 25.847596 20.000849 26.368877 20.800182 C 26.767138 21.36523 26.999803 22.027282 27.1875 22.6875 C 27.920818 22.364434 28.262212 21.549755 28.59375 20.875 C 28.941538 19.858453 28.762802 18.76136 28.455078 17.759766 C 28.17068 16.804443 27.772216 15.883164 27.24846 15.03425 C 26.653748 14.049393 25.884425 13.176749 25.011553 12.429098 C 23.999012 11.547068 22.864284 10.815038 21.698333 10.153724 C 20.70412 9.6131587 19.682343 9.1037574 18.603132 8.7575541 C 18.218026 8.6460827 17.818999 8.5896518 17.417969 8.6191406 z M 19.279297 13.669922 C 19.932407 14.147095 19.904895 15.359585 19.157022 15.72463 C 18.314296 16.167547 17.356697 15.171639 17.654297 14.324219 C 17.830971 13.67889 18.721733 13.362211 19.279297 13.669922 z "
     id="path6"
     transform="scale(0.75)" />
</svg>
