<?xml version="1.0" encoding="UTF-8" standalone="no"?>
<!-- Generator: Adobe Illustrator 15.1.0, SVG Export Plug-In . SVG Version: 6.00 Build 0)  -->

<svg
   xmlns:dc="http://purl.org/dc/elements/1.1/"
   xmlns:cc="http://creativecommons.org/ns#"
   xmlns:rdf="http://www.w3.org/1999/02/22-rdf-syntax-ns#"
   xmlns:svg="http://www.w3.org/2000/svg"
   xmlns="http://www.w3.org/2000/svg"
   xmlns:sodipodi="http://sodipodi.sourceforge.net/DTD/sodipodi-0.dtd"
   xmlns:inkscape="http://www.inkscape.org/namespaces/inkscape"
   version="1.1"
   id="Layer_1"
   x="0px"
   y="0px"
   width="664px"
   height="354px"
   viewBox="0 0 664 354"
   enable-background="new 0 0 664 354"
   xml:space="preserve"
   sodipodi:docname="conflict.svg"
   inkscape:version="0.92.4 (unknown)"><metadata
   id="metadata87"><rdf:RDF><cc:Work
       rdf:about=""><dc:format>image/svg+xml</dc:format><dc:type
         rdf:resource="http://purl.org/dc/dcmitype/StillImage" /></cc:Work></rdf:RDF></metadata><defs
   id="defs85">
	
	
	
	
	
	
	
	
	
	
	
	
	
	
	
	
	
	
	
	

		
	
	
	
	
	
	
	
	
	
	
	
	
	
	
		
		

		
	
</defs><sodipodi:namedview
   pagecolor="#ffffff"
   bordercolor="#666666"
   borderopacity="1"
   objecttolerance="10"
   gridtolerance="10"
   guidetolerance="10"
   inkscape:pageopacity="0"
   inkscape:pageshadow="2"
   inkscape:window-width="1920"
   inkscape:window-height="1133"
   id="namedview83"
   showgrid="false"
   inkscape:zoom="1.8915663"
   inkscape:cx="302.47604"
   inkscape:cy="177"
   inkscape:window-x="1920"
   inkscape:window-y="38"
   inkscape:window-maximized="1"
   inkscape:current-layer="Layer_1" />
<g
   id="g972"><rect
     x="33"
     y="111"
     width="100"
     height="127"
     id="rect2"
     style="fill:#f7f7f7" /><rect
     x="33"
     y="111"
     width="100"
     height="127"
     id="rect4"
     style="fill:none;stroke:#85888d;stroke-width:2" /><line
     x1="46"
     y1="131"
     x2="120"
     y2="131"
     id="line6"
     style="fill:none;stroke:#000000;stroke-width:2" /><line
     x1="46"
     y1="137"
     x2="120"
     y2="137"
     id="line8"
     style="fill:none;stroke:#000000;stroke-width:2" /><line
     x1="46"
     y1="142"
     x2="120"
     y2="142"
     id="line10"
     style="fill:none;stroke:#000000;stroke-width:2" /><line
     x1="46"
     y1="154"
     x2="120"
     y2="154"
     id="line12"
     style="fill:none;stroke:#000000;stroke-width:2" /><rect
     x="500"
     y="111"
     width="100"
     height="127"
     id="rect14"
     style="fill:#f7f7f7" /><rect
     x="500"
     y="111"
     width="100"
     height="127"
     id="rect16"
     style="fill:none;stroke:#85888d;stroke-width:2" /><line
     x1="513"
     y1="131"
     x2="587"
     y2="131"
     id="line18"
     style="fill:none;stroke:#000000;stroke-width:2" /><line
     x1="513"
     y1="137"
     x2="587"
     y2="137"
     id="line20"
     style="fill:none;stroke:#000000;stroke-width:2" /><line
     x1="513"
     y1="142"
     x2="587"
     y2="142"
     id="line22"
     style="fill:none;stroke:#000000;stroke-width:2" /><line
     x1="513"
     y1="154"
     x2="587"
     y2="154"
     id="line24"
     style="fill:none;stroke:#000000;stroke-width:2" /><rect
     x="255"
     y="23"
     width="100"
     height="128"
     id="rect26"
     style="fill:#f7f7f7" /><rect
     x="255"
     y="23"
     width="100"
     height="128"
     id="rect28"
     style="fill:none;stroke:#85888d;stroke-width:2" /><line
     x1="268"
     y1="43"
     x2="342"
     y2="43"
     id="line30"
     style="fill:none;stroke:#000000;stroke-width:2" /><line
     x1="268"
     y1="49"
     x2="342"
     y2="49"
     id="line32"
     style="fill:none;stroke:#000000;stroke-width:2" /><line
     x1="268"
     y1="55"
     x2="342"
     y2="55"
     id="line34"
     style="fill:none;stroke:#000000;stroke-width:2" /><line
     x1="268"
     y1="67"
     x2="342"
     y2="67"
     id="line36"
     style="fill:none;stroke:#f1a340;stroke-width:2" /><line
     x1="157"
     y1="59"
     x2="231"
     y2="59"
     id="line38"
     style="fill:none;stroke:#f1a340;stroke-width:2" /><line
     x1="392.763"
     y1="59"
     x2="466.763"
     y2="59"
     id="line40"
     style="fill:none;stroke:#f1a340;stroke-width:2" /><line
     x1="461.51999"
     y1="172.158"
     x2="535.52002"
     y2="172.158"
     id="line42"
     style="fill:none;stroke:#f1a340;stroke-width:2" /><polygon
     points="237.382,98.616 190.144,81.62 194.44,95.675 153.541,108.179 162.527,137.571 203.427,125.067 207.724,139.122 "
     id="polygon44"
     style="fill:#d8daeb" /><polygon
     points="471.382,212.261 424.144,195.265 428.44,209.319 387.541,221.824 396.527,251.216 437.427,238.712 441.724,252.767 "
     id="polygon46"
     style="fill:#d8daeb" /><rect
     x="255"
     y="203"
     width="100"
     height="128"
     id="rect48"
     style="fill:#f7f7f7" /><rect
     x="255"
     y="203"
     width="100"
     height="128"
     id="rect50"
     style="fill:none;stroke:#85888d;stroke-width:2" /><line
     x1="268"
     y1="223"
     x2="342"
     y2="223"
     id="line52"
     style="fill:none;stroke:#000000;stroke-width:2" /><line
     x1="268"
     y1="229"
     x2="342"
     y2="229"
     id="line54"
     style="fill:none;stroke:#000000;stroke-width:2" /><line
     x1="268"
     y1="235"
     x2="342"
     y2="235"
     id="line56"
     style="fill:none;stroke:#000000;stroke-width:2" /><line
     x1="268"
     y1="247"
     x2="342"
     y2="247"
     id="line58"
     style="fill:none;stroke:#998ec3;stroke-width:2" /><polygon
     points="237.382,235.771 207.724,195.266 203.427,209.32 162.527,196.815 153.541,226.208 194.44,238.713 190.144,252.767 "
     id="polygon60"
     style="fill:#d8daeb" /><polygon
     points="471.382,122.125 441.724,81.621 437.427,95.675 396.527,83.17 387.541,112.563 428.44,125.068 424.144,139.121 "
     id="polygon62"
     style="fill:#d8daeb" /><line
     x1="268"
     y1="253"
     x2="342"
     y2="253"
     id="line64"
     style="fill:none;stroke:#998ec3;stroke-width:2" /><line
     x1="158"
     y1="268"
     x2="231"
     y2="268"
     id="line66"
     style="fill:none;stroke:#998ec3;stroke-width:2" /><line
     x1="158"
     y1="274"
     x2="231"
     y2="274"
     id="line68"
     style="fill:none;stroke:#998ec3;stroke-width:2" /><line
     x1="393"
     y1="268"
     x2="466"
     y2="268"
     id="line70"
     style="fill:none;stroke:#998ec3;stroke-width:2" /><line
     x1="393"
     y1="274"
     x2="466"
     y2="274"
     id="line72"
     style="fill:none;stroke:#998ec3;stroke-width:2" /><line
     x1="568.67798"
     y1="180.189"
     x2="641.67798"
     y2="180.189"
     id="line74"
     style="fill:none;stroke:#998ec3;stroke-width:2" /><line
     x1="568.67798"
     y1="186.189"
     x2="641.67798"
     y2="186.189"
     id="line76"
     style="fill:none;stroke:#998ec3;stroke-width:2" /><path
     d="m 546.585,185.594 -0.043,-1.123 c -0.13,-2.203 0.604,-4.45 2.549,-6.739 1.382,-1.685 2.506,-3.11 2.506,-4.536 0,-1.512 -0.994,-2.548 -3.154,-2.592 -1.425,0 -3.153,0.519 -4.276,1.296 l -1.469,-4.708 c 1.599,-0.907 4.147,-1.771 7.214,-1.771 5.702,0 8.338,3.153 8.338,6.739 0,3.283 -2.074,5.442 -3.716,7.257 -1.555,1.771 -2.246,3.456 -2.202,5.399 v 0.778 z m -1.123,6.004 c 0,-2.332 1.599,-3.931 3.845,-3.931 2.333,0 3.845,1.599 3.888,3.931 0,2.246 -1.512,3.932 -3.888,3.932 -2.289,-0.001 -3.845,-1.686 -3.845,-3.932 z"
     id="path78"
     inkscape:connector-curvature="0" /></g>
</svg>