<?xml version="1.0" encoding="utf-8"?>
<!-- Generator: Adobe Illustrator 15.1.0, SVG Export Plug-In . SVG Version: 6.00 Build 0)  -->
<!DOCTYPE svg PUBLIC "-//W3C//DTD SVG 1.1//EN" "http://www.w3.org/Graphics/SVG/1.1/DTD/svg11.dtd">
<svg version="1.1" xmlns="http://www.w3.org/2000/svg" xmlns:xlink="http://www.w3.org/1999/xlink" x="0px" y="0px" width="622px"
	 height="452px" viewBox="0 0 622 452" enable-background="new 0 0 622 452" xml:space="preserve">
<g id="Layer_6">
	<rect x="7" y="12" fill="#FFFFFF" stroke="#000000" stroke-miterlimit="10" width="603.785" height="244"/>
</g>
<g id="Layer_5">
	<g>
		<path fill="#B5B5B5" stroke="#FFFFFF" stroke-miterlimit="10" d="M598,63c0-8.284-6.716-15-15-15H198c-8.284,0-15,6.716-15,15v167
			c0,8.284,6.716,15,15,15h385c8.284,0,15-6.716,15-15V63z"/>
		<rect x="197" y="59" fill="none" width="70" height="28"/>
		<text transform="matrix(1 0 0 1 197 71.4199)" font-family="'Consolas'" font-size="18">.git</text>
	</g>
	<rect x="16" y="19" fill="none" width="195.585" height="24.449"/>
	<text transform="matrix(1 0 0 1 16 28.707)" font-family="'Helvetica'" font-size="13.5">~vlad/planets</text>
	<g>
		<rect x="355.302" y="280.401" fill="#FFFFFF" stroke="#000000" stroke-miterlimit="10" width="189.901" height="148.599"/>
		<rect x="365.145" y="286.131" fill="none" width="195.585" height="24.449"/>
		<text transform="matrix(1 0 0 1 365.1445 292.7236)" font-family="'Helvetica'" font-size="9.168">https://github.com/vlad/planets</text>
		<g>
			<path fill="#B5B5B5" stroke="#FFFFFF" stroke-miterlimit="10" d="M498.445,320.162c0-4.319-3.502-7.82-7.822-7.82H409.88
				c-4.319,0-7.821,3.501-7.821,7.82v87.077c0,4.319,3.502,7.82,7.821,7.82h80.743c4.32,0,7.822-3.501,7.822-7.82V320.162z"/>
			<rect x="406.771" y="319.872" fill="none" width="35" height="15"/>
			<text transform="matrix(1 0 0 1 406.7715 328.1523)" font-family="'Consolas'" font-size="12">.git</text>
		</g>
	</g>
</g>
<g id="Layer_3">
	<g>
		<linearGradient id="SVGID_1_" gradientUnits="userSpaceOnUse" x1="303.499" y1="123.9863" x2="303.499" y2="179.2349">
			<stop  offset="0.0982" style="stop-color:#C4C4C4"/>
			<stop  offset="0.5326" style="stop-color:#686868"/>
			<stop  offset="1" style="stop-color:#000000"/>
		</linearGradient>
		<path fill="url(#SVGID_1_)" stroke="#231F20" stroke-miterlimit="10" d="M253.453,178.205c0-9.264,22.404-16.777,50.047-16.777
			s50.045,7.514,50.045,16.777v1.029c0,0,0-2.115,0-3.117c0-1.007,0-35.745,0-35.745v0.394c0-9.27-22.402-16.78-50.045-16.78
			s-50.047,7.51-50.047,16.78v-0.394c0,0,0,34.519,0,35.733c0,1.205,0,3.129,0,3.129V178.205z"/>
		<g>
			<path fill="#FFFFFF" stroke="#231F20" stroke-miterlimit="10" d="M353.545,140.373c0,0,0,34.738,0,35.745
				c0,1.002,0.355,3.117,0.355,3.117c0,9.27-22.758,16.779-50.4,16.779s-50.4-7.51-50.4-16.779c0,0,0.354-1.924,0.354-3.129
				c0-1.214,0-35.733,0-35.733c0,9.274,22.404,16.785,50.047,16.785S353.545,149.647,353.545,140.373z"/>
		</g>
	</g>
	<g>
		<polygon fill="#FFFFFF" stroke="#000000" stroke-miterlimit="10" points="341.719,134.965 282.411,134.965 269.235,149.459 
			328.542,149.459 		"/>
		<line fill="none" stroke="#70BF41" stroke-width="2" x1="282.411" y1="140.894" x2="331.165" y2="140.894"/>
	</g>
</g>
<g id="Layer_4">
	<linearGradient id="SVGID_2_" gradientUnits="userSpaceOnUse" x1="537.1768" y1="57.6602" x2="537.1768" y2="112.9126">
		<stop  offset="0.0982" style="stop-color:#C4C4C4"/>
		<stop  offset="0.5326" style="stop-color:#686868"/>
		<stop  offset="1" style="stop-color:#000000"/>
	</linearGradient>
	<path fill="url(#SVGID_2_)" stroke="#231F20" stroke-miterlimit="10" d="M487.13,111.882c0-9.268,22.407-16.781,50.047-16.781
		c27.641,0,50.047,7.513,50.047,16.781v1.03c0,0,0-2.118,0-3.121s0-35.739,0-35.739v0.388c0-9.268-22.406-16.781-50.047-16.781
		c-27.64,0-50.047,7.513-50.047,16.781v-0.388c0,0,0,34.519,0,35.728s0,3.132,0,3.132V111.882z"/>
	<g>
		<path fill="#FFFFFF" stroke="#231F20" stroke-miterlimit="10" d="M587.021,151.283c0,0,0,34.738,0,35.74s0.354,3.121,0.354,3.121
			c0,9.268-22.76,16.779-50.4,16.779c-27.64,0-50.399-7.512-50.399-16.779c0,0,0.353-1.924,0.353-3.133s0-35.729,0-35.729
			c0,9.268,22.407,16.781,50.047,16.781C564.614,168.064,587.021,160.551,587.021,151.283z"/>
	</g>
	<g>
		<path fill="#FFFFFF" stroke="#231F20" stroke-miterlimit="10" d="M587.021,112.601c0,0,0,34.736,0,35.739
			c0,1.002,0.354,3.121,0.354,3.121c0,9.268-22.76,16.779-50.4,16.779c-27.64,0-50.399-7.512-50.399-16.779
			c0,0,0.353-1.923,0.353-3.132s0-35.728,0-35.728c0,9.268,22.407,16.78,50.047,16.78
			C564.614,129.381,587.021,121.869,587.021,112.601z"/>
	</g>
	<g>
		<path fill="#FFFFFF" stroke="#231F20" stroke-miterlimit="10" d="M587.021,73.628c0,0,0,34.737,0,35.739s0.354,3.12,0.354,3.12
			c0,9.269-22.76,16.781-50.4,16.781c-27.64,0-50.399-7.513-50.399-16.781c0,0,0.353-1.922,0.353-3.131s0-35.728,0-35.728
			c0,9.268,22.407,16.78,50.047,16.78C564.614,90.409,587.021,82.896,587.021,73.628z"/>
	</g>
	<g>
		<polygon fill="#FFFFFF" stroke="#000000" stroke-miterlimit="10" points="573.216,66.381 513.908,66.381 500.732,80.875 
			560.039,80.875 		"/>
		<line fill="none" stroke="#70BF41" stroke-width="2" x1="513.908" y1="72.311" x2="562.662" y2="72.311"/>
	</g>
</g>
<g id="Layer_1">
	<g>
		<rect x="24" y="85" fill="#DCDEE0" width="100" height="128"/>
		<rect x="24" y="85" fill="none" stroke="#85888D" stroke-width="2" width="100" height="128"/>
		<line fill="none" stroke="#000000" stroke-width="2" x1="37" y1="105" x2="111" y2="105"/>
		<line fill="none" stroke="#000000" stroke-width="2" x1="37" y1="111" x2="111" y2="111"/>
		<line fill="none" stroke="#000000" stroke-width="2" x1="37" y1="117" x2="111" y2="117"/>
		<line fill="none" stroke="#70BF41" stroke-width="2" x1="37" y1="129" x2="111" y2="129"/>
	</g>
</g>
<g id="Layer_2">
	<g>
		<rect x="150.871" y="136.768" fill="#45BEEE" width="45.956" height="30.604"/>
		<polygon fill="#45BEEE" points="193.467,121.571 193.467,181.695 234.02,151.163 		"/>
	</g>
	<rect x="164" y="146.069" fill="none" width="52.743" height="14"/>
	<text transform="matrix(1 0 0 1 164 154.3496)" font-family="'Consolas'" font-size="12">git add</text>
	<g>
		<rect x="381.251" y="136.768" fill="#45BEEE" width="45.956" height="30.604"/>
		<polygon fill="#45BEEE" points="423.847,121.571 423.847,181.695 464.399,151.163 		"/>
	</g>
	<rect x="376.98" y="146.069" fill="none" width="85.542" height="14"/>
	<text transform="matrix(1 0 0 1 386.7637 154.3496)" font-family="'Consolas'" font-size="12">git commit</text>
	<rect x="229" y="206" fill="none" width="147" height="17"/>
	<text transform="matrix(1 0 0 1 269.4766 214.6279)" font-family="'Helvetica'" font-size="12">staging area</text>
	<rect x="464.785" y="219" fill="none" width="147" height="17"/>
	<text transform="matrix(1 0 0 1 511.9414 227.6279)" font-family="'Helvetica'" font-size="12">repository</text>
</g>
</svg>
