<?xml version="1.0" encoding="utf-8"?>
<!-- Generator: Adobe Illustrator 15.0.0, SVG Export Plug-In . SVG Version: 6.00 Build 0)  -->
<!DOCTYPE svg PUBLIC "-//W3C//DTD SVG 1.1//EN" "http://www.w3.org/Graphics/SVG/1.1/DTD/svg11.dtd">
<svg version="1.1" id="Layer_1" xmlns="http://www.w3.org/2000/svg" xmlns:xlink="http://www.w3.org/1999/xlink" x="0px" y="0px"
	 width="650px" height="400px" viewBox="0 0 650 400" enable-background="new 0 0 650 400" xml:space="preserve">
<path fill="#ACCC9B" stroke="#010101" stroke-width="2" stroke-miterlimit="10" d="M288.019,222.588
	c0,5.72-4.7,10.357-10.498,10.357H139.299c-5.797,0-10.498-4.636-10.498-10.357v-40.559c0-5.718,4.7-10.355,10.498-10.355h138.222
	c5.798,0,10.498,4.637,10.498,10.355V222.588z"/>
<path fill="#FCF6B7" stroke="#010101" stroke-width="2" stroke-miterlimit="10" d="M467.025,222.588
	c0,5.72-4.7,10.357-10.498,10.357H318.305c-5.798,0-10.497-4.636-10.497-10.357v-40.559c0-5.718,4.699-10.355,10.497-10.355h138.223
	c5.798,0,10.498,4.637,10.498,10.355V222.588L467.025,222.588z"/>
<path fill="#9DCDC9" stroke="#010101" stroke-width="2" stroke-miterlimit="10" d="M645.807,222.588
	c0,5.72-4.699,10.357-10.497,10.357H497.088c-5.797,0-10.497-4.636-10.497-10.357v-40.559c0-5.718,4.699-10.355,10.497-10.355
	h138.223c5.797,0,10.497,4.637,10.497,10.355L645.807,222.588L645.807,222.588z"/>
<rect x="137.347" y="232.945" fill="#E7E7E7" stroke="#010101" stroke-width="2" stroke-miterlimit="10" width="142.126" height="165.691"/>
<rect x="316.241" y="232.945" fill="#E7E7E7" stroke="#010101" stroke-width="2" stroke-miterlimit="10" width="142.126" height="165.691"/>
<rect x="495.135" y="232.945" fill="#E7E7E7" stroke="#010101" stroke-width="2" stroke-miterlimit="10" width="142.125" height="165.691"/>
<text transform="matrix(1.0423 0 0 1 170.2095 195.8374)" fill="#010101" font-family="'MyriadPro-Regular'" font-size="20.7114">Working</text>
<text transform="matrix(1.0423 0 0 1 166.8096 220.6914)" fill="#010101" font-family="'MyriadPro-Regular'" font-size="20.7114">Directory</text>
<text transform="matrix(1.0423 0 0 1 364.3516 195.8374)" fill="#010101" font-family="'MyriadPro-Regular'" font-size="20.7114">Stage</text>
<text transform="matrix(1.0423 0 0 1 358.6953 220.6914)" fill="#010101" font-family="'MyriadPro-Regular'" font-size="20.7114">(Index)</text>
<text transform="matrix(1.0423 0 0 1 542.5918 195.8374)" fill="#010101" font-family="'MyriadPro-Regular'" font-size="20.7114">Local</text>
<text transform="matrix(1.0423 0 0 1 518.0029 220.6914)" fill="#010101" font-family="'MyriadPro-Regular'" font-size="20.7114">Repository</text>
<g>
	<line fill="none" x1="208.41" y1="232.945" x2="208.41" y2="398.637"/>
	<g>
		<line fill="none" stroke="#6E6F72" stroke-width="4" stroke-miterlimit="10" x1="208.41" y1="232.945" x2="208.41" y2="238.123"/>
		
			<line fill="none" stroke="#6E6F72" stroke-width="4" stroke-miterlimit="10" stroke-dasharray="12,12" x1="208.41" y1="248.479" x2="208.41" y2="388.281"/>
		<line fill="none" stroke="#6E6F72" stroke-width="4" stroke-miterlimit="10" x1="208.41" y1="393.459" x2="208.41" y2="398.637"/>
	</g>
</g>
<g>
	<g>
		
			<line fill="none" stroke="#6E6F72" stroke-width="4" stroke-miterlimit="10" x1="387.305" y1="232.945" x2="387.305" y2="238.123"/>
		
			<line fill="none" stroke="#6E6F72" stroke-width="4" stroke-miterlimit="10" stroke-dasharray="12,12" x1="387.305" y1="248.479" x2="387.305" y2="388.281"/>
		
			<line fill="none" stroke="#6E6F72" stroke-width="4" stroke-miterlimit="10" x1="387.305" y1="393.459" x2="387.305" y2="398.637"/>
	</g>
</g>
<g>
	<g>
		
			<line fill="none" stroke="#6E6F72" stroke-width="4" stroke-miterlimit="10" x1="566.197" y1="232.945" x2="566.197" y2="238.123"/>
		
			<line fill="none" stroke="#6E6F72" stroke-width="4" stroke-miterlimit="10" stroke-dasharray="12,12" x1="566.197" y1="248.479" x2="566.197" y2="388.281"/>
		
			<line fill="none" stroke="#6E6F72" stroke-width="4" stroke-miterlimit="10" x1="566.197" y1="393.459" x2="566.197" y2="398.637"/>
	</g>
</g>
<rect x="208.41" y="311.103" fill="#7CD1EA" stroke="#73C8F0" stroke-width="2" stroke-miterlimit="10" width="178.895" height="24.537"/>
<text transform="matrix(1.0423 0 0 1 254.6113 327.6855)" fill="#010101" font-family="'LucidaConsole'" font-size="15.5335">git diff</text>
<rect x="208.917" y="263.639" fill="#7CD1EA" stroke="#73C8F0" stroke-width="2" stroke-miterlimit="10" width="357.281" height="24.537"/>
<text transform="matrix(1.0423 0 0 1 325.2803 280.2227)" fill="#010101" font-family="'LucidaConsole'" font-size="15.5335">git diff HEAD</text>
<rect x="387.81" y="347.721" fill="#7CD1EA" stroke="#73C8F0" stroke-width="2" stroke-miterlimit="10" width="178.896" height="24.537"/>
<text transform="matrix(1.0423 0 0 1 393.5332 364.3047)" fill="#010101" font-family="'LucidaConsole'" font-size="15.5335">git diff --staged</text>
<path fill="#AFB0B2" stroke="#231F20" stroke-miterlimit="10" d="M607.773,29.726c0,8.333-4.832,15.09-10.793,15.09h-64.768
	c-5.961,0-10.794-6.757-10.794-15.09V15.894c0-8.333,4.833-15.09,10.794-15.09h64.768c5.961,0,10.793,6.757,10.793,15.09V29.726z"/>
<path fill="#FDCD9A" stroke="#FBC09C" stroke-miterlimit="10" d="M607.773,46.11c0,5.719-4.832,10.355-10.793,10.355h-64.768
	c-5.961,0-10.794-4.636-10.794-10.355v-9.493c0-5.72,4.833-10.355,10.794-10.355h64.768c5.961,0,10.793,4.635,10.793,10.355V46.11z"
	/>
<path fill="#C7BEDC" stroke="#231F20" stroke-width="2" stroke-miterlimit="10" d="M620.424,110.402
	c0,5.719-4.834,10.355-10.795,10.355h-89.054c-5.961,0-10.793-4.636-10.793-10.355V96.595c0-5.719,4.832-10.355,10.793-10.355
	h89.054c5.961,0,10.795,4.637,10.795,10.355V110.402z"/>
<g>
	<g>
		
			<line fill="none" stroke="#231F20" stroke-width="2" stroke-miterlimit="10" x1="565.102" y1="120.758" x2="565.102" y2="164.233"/>
		<g>
			<path fill="#231F20" d="M565.102,163.54c1.879-1.804,5.598-2.664,8.176-2.734c-3.461,2.473-6.482,5.686-8.176,9.573
				c-1.624-3.888-4.825-6.96-8.176-9.573C559.688,161.018,563.039,161.664,565.102,163.54z"/>
		</g>
	</g>
</g>
<path fill="#C7BEDC" stroke="#231F20" stroke-width="2" stroke-miterlimit="10" d="M453.419,110.402
	c0,5.719-4.833,10.355-10.795,10.355H353.57c-5.96,0-10.793-4.636-10.793-10.355V96.595c0-5.719,4.833-10.355,10.793-10.355h89.054
	c5.962,0,10.795,4.637,10.795,10.355V110.402z"/>
<path fill="#C7BEDC" stroke="#231F20" stroke-width="2" stroke-miterlimit="10" d="M286.416,110.402
	c0,5.719-4.832,10.355-10.794,10.355h-89.053c-5.961,0-10.794-4.636-10.794-10.355V96.595c0-5.719,4.833-10.355,10.794-10.355
	h89.053c5.962,0,10.794,4.637,10.794,10.355V110.402z"/>
<g>
	<g>
		
			<line fill="none" stroke="#231F20" stroke-width="2" stroke-miterlimit="10" x1="507.404" y1="103.48" x2="462.088" y2="103.512"/>
		<g>
			<path fill="#231F20" d="M462.81,103.512c1.883,1.802,2.78,5.368,2.857,7.842c-2.581-3.321-5.933-6.215-9.986-7.837
				c4.052-1.559,7.253-4.633,9.975-7.852C465.435,98.314,464.763,101.531,462.81,103.512z"/>
		</g>
	</g>
</g>
<g>
	<g>
		
			<line fill="none" stroke="#231F20" stroke-width="2" stroke-miterlimit="10" x1="340.078" y1="103.463" x2="294.761" y2="103.495"/>
		<g>
			<path fill="#231F20" d="M295.485,103.494c1.882,1.801,2.779,5.369,2.856,7.843c-2.581-3.321-5.933-6.217-9.986-7.837
				c4.052-1.56,7.251-4.634,9.972-7.852C298.11,98.298,297.438,101.513,295.485,103.494z"/>
		</g>
	</g>
</g>
<text transform="matrix(1.0423 0 0 1 540.9893 107.813)" fill="#010101" font-family="'MyriadPro-Regular'" font-size="18.1225">6e538</text>
<text transform="matrix(1.0423 0 0 1 373.6777 107.813)" fill="#010101" font-family="'MyriadPro-Regular'" font-size="18.1225">31dba</text>
<text transform="matrix(1.0423 0 0 1 206.8076 107.813)" fill="#010101" font-family="'MyriadPro-Regular'" font-size="18.1225">bc07e</text>
<text transform="matrix(1.0423 0 0 1 537.1611 48.2686)" fill="#010101" font-family="'MyriadPro-Regular'" font-size="18.1225">Master</text>
<g>
	<g>
		<line fill="none" stroke="#231F20" stroke-width="2" stroke-miterlimit="10" x1="565.102" y1="58.407" x2="565.102" y2="77.073"/>
		<g>
			<path fill="#231F20" d="M565.102,76.379c1.879-1.805,5.598-2.664,8.176-2.734c-3.461,2.472-6.482,5.686-8.176,9.574
				c-1.624-3.888-4.825-6.959-8.176-9.574C559.688,73.857,563.039,74.504,565.102,76.379z"/>
		</g>
	</g>
</g>
<text transform="matrix(1.0423 0 0 1 540.9893 20.6519)" fill="#010101" font-family="'MyriadPro-Regular'" font-size="18.1225">HEAD</text>
<g>
	<g>
		<path fill="none" stroke="#73C8F0" stroke-width="4" stroke-miterlimit="10" d="M142.44,162.103
			c-2.917-28.245,10.665-53.048,32.625-57.385"/>
		<g>
			<path fill="#73C8F0" d="M143.748,170.343c0.929-4.087,2.781-9.25,5.054-12.605l-6.431,3.272l-7.122-1.431
				C138.402,162.195,141.677,166.666,143.748,170.343z"/>
		</g>
	</g>
</g>
<text transform="matrix(1.0423 0 0 1 -0.7993 137.5298)" fill="#010101" font-family="'LucidaConsole'" font-size="15.5335">git diff bc07e</text>
<text transform="matrix(1.0423 0 0 1 166.8096 56.4658)" fill="#010101" font-family="'LucidaConsole'" font-size="15.5335">git diff bc07e 31dba</text>
<g>
	<g>
		<path fill="none" stroke="#73C8F0" stroke-width="4" stroke-miterlimit="10" d="M255.241,78.284
			c29.104-21.817,73.318-21.463,104.964,0.897"/>
		<g>
			<path fill="#73C8F0" d="M249.67,82.905c3.436-1.186,8.073-2.202,11.548-2.099l-5.217-3.101l-2.026-5.719
				C253.4,75.416,251.502,79.766,249.67,82.905z"/>
		</g>
		<g>
			<path fill="#73C8F0" d="M365.944,83.597c-3.477-1.061-8.147-1.908-11.617-1.679l5.102-3.288l1.817-5.789
				C361.945,76.248,364,80.526,365.944,83.597z"/>
		</g>
	</g>
</g>
</svg>
