<?xml version="1.0" encoding="utf-8"?>
<!-- Generator: Adobe Illustrator 15.1.0, SVG Export Plug-In . SVG Version: 6.00 Build 0)  -->
<!DOCTYPE svg PUBLIC "-//W3C//DTD SVG 1.1//EN" "http://www.w3.org/Graphics/SVG/1.1/DTD/svg11.dtd">
<svg version="1.1" xmlns="http://www.w3.org/2000/svg" xmlns:xlink="http://www.w3.org/1999/xlink" x="0px" y="0px" width="622px"
	 height="355px" viewBox="0 0 622 355" enable-background="new 0 0 622 355" xml:space="preserve">
<g id="Layer_5">
	<path fill="#B5B5B5" stroke="#FFFFFF" stroke-miterlimit="10" d="M610,23c0-8.284-6.716-15-15-15H210c-8.284,0-15,6.716-15,15v297
		c0,8.284,6.716,15,15,15h385c8.284,0,15-6.716,15-15V23z"/>
	<rect x="210" y="21" fill="none" width="70" height="28"/>
	<text transform="matrix(1 0 0 1 210 33.4199)" font-family="'Consolas'" font-size="18">.git</text>
</g>
<g id="Layer_3">
	<g>
		<linearGradient id="SVGID_1_" gradientUnits="userSpaceOnUse" x1="331.499" y1="153" x2="331.499" y2="208.248">
			<stop  offset="0.0982" style="stop-color:#C4C4C4"/>
			<stop  offset="0.5326" style="stop-color:#686868"/>
			<stop  offset="1" style="stop-color:#000000"/>
		</linearGradient>
		<path fill="url(#SVGID_1_)" stroke="#231F20" stroke-miterlimit="10" d="M281.453,207.219c0-9.264,22.404-16.777,50.047-16.777
			s50.045,7.514,50.045,16.777v1.029c0,0,0-2.115,0-3.117c0-1.007,0-35.744,0-35.744v0.393c0-9.27-22.402-16.779-50.045-16.779
			s-50.047,7.51-50.047,16.779v-0.393c0,0,0,34.519,0,35.732c0,1.205,0,3.129,0,3.129V207.219z"/>
		<g>
			<path fill="#FFFFFF" stroke="#231F20" stroke-miterlimit="10" d="M381.545,169.387c0,0,0,34.737,0,35.744
				c0,1.002,0.355,3.117,0.355,3.117c0,9.27-22.758,16.779-50.4,16.779s-50.4-7.51-50.4-16.779c0,0,0.354-1.924,0.354-3.129
				c0-1.214,0-35.732,0-35.732c0,9.273,22.404,16.784,50.047,16.784S381.545,178.66,381.545,169.387z"/>
		</g>
	</g>
	<g>
		<polygon fill="#FFFFFF" stroke="#000000" stroke-miterlimit="10" points="369.719,149.979 310.411,149.979 297.235,164.473 
			356.542,164.473 		"/>
		<line fill="none" stroke="#70BF41" stroke-width="2" x1="310.411" y1="155.908" x2="359.165" y2="155.908"/>
	</g>
	<g>
		<polygon fill="#FFFFFF" stroke="#000000" stroke-miterlimit="10" points="371.029,165.753 311.722,165.753 298.546,180.247 
			357.853,180.247 		"/>
		<line fill="none" stroke="#B285BC" stroke-width="2" x1="312.722" y1="169.683" x2="361.476" y2="169.683"/>
		<line fill="none" stroke="#B285BC" stroke-width="2" x1="308.722" y1="174.683" x2="357.476" y2="174.683"/>
	</g>
</g>
<g id="Layer_4">
	<linearGradient id="SVGID_2_" gradientUnits="userSpaceOnUse" x1="547.3916" y1="144.6602" x2="547.3916" y2="199.9121">
		<stop  offset="0.0982" style="stop-color:#C4C4C4"/>
		<stop  offset="0.5326" style="stop-color:#686868"/>
		<stop  offset="1" style="stop-color:#000000"/>
	</linearGradient>
	<path fill="url(#SVGID_2_)" stroke="#231F20" stroke-miterlimit="10" d="M497.345,198.883c0-9.268,22.407-16.781,50.047-16.781
		c27.641,0,50.047,7.514,50.047,16.781v1.029c0,0,0-2.117,0-3.12s0-35.739,0-35.739v0.389c0-9.268-22.406-16.781-50.047-16.781
		c-27.64,0-50.047,7.514-50.047,16.781v-0.389c0,0,0,34.52,0,35.729s0,3.131,0,3.131V198.883z"/>
	<g>
		<path fill="#FFFFFF" stroke="#231F20" stroke-miterlimit="10" d="M597.235,238.283c0,0,0,34.738,0,35.74s0.354,3.121,0.354,3.121
			c0,9.268-22.76,16.779-50.4,16.779c-27.64,0-50.399-7.512-50.399-16.779c0,0,0.353-1.924,0.353-3.133s0-35.729,0-35.729
			c0,9.268,22.407,16.781,50.047,16.781C574.829,255.064,597.235,247.551,597.235,238.283z"/>
	</g>
	<g>
		<path fill="#FFFFFF" stroke="#231F20" stroke-miterlimit="10" d="M597.235,199.602c0,0,0,34.736,0,35.738s0.354,3.121,0.354,3.121
			c0,9.268-22.76,16.779-50.4,16.779c-27.64,0-50.399-7.512-50.399-16.779c0,0,0.353-1.924,0.353-3.133s0-35.727,0-35.727
			c0,9.268,22.407,16.779,50.047,16.779C574.829,216.381,597.235,208.869,597.235,199.602z"/>
	</g>
	<g>
		<path fill="#FFFFFF" stroke="#231F20" stroke-miterlimit="10" d="M597.235,160.629c0,0,0,34.736,0,35.738
			c0,1.003,0.354,3.121,0.354,3.121c0,9.268-22.76,16.781-50.4,16.781c-27.64,0-50.399-7.514-50.399-16.781
			c0,0,0.353-1.923,0.353-3.132s0-35.728,0-35.728c0,9.268,22.407,16.779,50.047,16.779
			C574.829,177.408,597.235,169.896,597.235,160.629z"/>
	</g>
	<g>
		<polygon fill="#FFFFFF" stroke="#000000" stroke-miterlimit="10" points="584.086,151.774 524.778,151.774 511.603,166.269 
			570.909,166.269 		"/>
		<line fill="none" stroke="#B285BC" stroke-width="2" x1="525.778" y1="155.704" x2="574.532" y2="155.704"/>
		<line fill="none" stroke="#B285BC" stroke-width="2" x1="521.778" y1="160.704" x2="570.532" y2="160.704"/>
	</g>
	<g>
		<polygon fill="#FFFFFF" stroke="#000000" stroke-miterlimit="10" points="582.775,136 523.468,136 510.292,150.494 
			569.599,150.494 		"/>
		<line fill="none" stroke="#70BF41" stroke-width="2" x1="523.468" y1="141.93" x2="572.222" y2="141.93"/>
	</g>
</g>
<g id="Layer_1">
	<g>
		<rect x="24" y="22" fill="#DCDEE0" width="100" height="128"/>
		<rect x="24" y="22" fill="none" stroke="#85888D" stroke-width="2" width="100" height="128"/>
		<line fill="none" stroke="#000000" stroke-width="2" x1="37" y1="42" x2="111" y2="42"/>
		<line fill="none" stroke="#000000" stroke-width="2" x1="37" y1="48" x2="111" y2="48"/>
		<line fill="none" stroke="#000000" stroke-width="2" x1="37" y1="54" x2="111" y2="54"/>
		<line fill="none" stroke="#70BF41" stroke-width="2" x1="37" y1="66" x2="111" y2="66"/>
	</g>
	<rect x="27.628" y="136" fill="none" width="92.743" height="14"/>
	<text transform="matrix(1 0 0 1 44.3105 144.2803)" font-family="'Consolas'" font-size="12">FILE1.txt</text>
	<g>
		<rect x="24" y="203" fill="#DCDEE0" width="100" height="128"/>
		<rect x="24" y="203" fill="none" stroke="#85888D" stroke-width="2" width="100" height="128"/>
		<line fill="none" stroke="#000000" stroke-width="2" x1="37" y1="223" x2="111" y2="223"/>
		<line fill="none" stroke="#000000" stroke-width="2" x1="37" y1="229" x2="111" y2="229"/>
		<line fill="none" stroke="#000000" stroke-width="2" x1="37" y1="235" x2="111" y2="235"/>
		<line fill="none" stroke="#000000" stroke-width="2" x1="37" y1="264.514" x2="111" y2="264.514"/>
		<line fill="none" stroke="#000000" stroke-width="2" x1="37" y1="270.514" x2="111" y2="270.514"/>
		<line fill="none" stroke="#000000" stroke-width="2" x1="37" y1="276.514" x2="111" y2="276.514"/>
		<line fill="none" stroke="#B285BC" stroke-width="2" x1="37" y1="247" x2="111" y2="247"/>
		<line fill="none" stroke="#B285BC" stroke-width="2" x1="37" y1="253" x2="111" y2="253"/>
		<rect x="27.628" y="317" fill="none" width="92.743" height="14"/>
		<text transform="matrix(1 0 0 1 44.3105 325.2803)" font-family="'Consolas'" font-size="12">FILE2.txt</text>
	</g>
</g>
<g id="Layer_2">
	<g>
		<g>
			
				<rect x="142.095" y="96.681" transform="matrix(0.9253 0.3793 -0.3793 0.9253 56.6822 -63.7296)" fill="#45BEEE" width="95.956" height="30.604"/>
			<polygon fill="#45BEEE" points="242.925,100.688 220.118,156.32 269.223,143.451 			"/>
		</g>
		
			<rect x="143.039" y="112.134" transform="matrix(0.9253 0.3793 -0.3793 0.9253 60.6383 -67.6153)" fill="none" width="117.744" height="15.888"/>
		<text transform="matrix(0.9253 0.3793 -0.3793 0.9253 149.894 99.1147)" font-family="'Consolas'" font-size="12">git add FILE1.txt</text>
	</g>
	<g>
		<g>
			
				<rect x="144.116" y="216.684" transform="matrix(0.9276 -0.3736 0.3736 0.9276 -72.76 88.5639)" fill="#45BEEE" width="95.955" height="30.604"/>
			<polygon fill="#45BEEE" points="222.087,187.027 244.55,242.798 270.759,199.325 			"/>
		</g>
		
			<rect x="147.351" y="221.583" transform="matrix(0.9276 -0.3736 0.3736 0.9276 -70.8178 93.6628)" fill="none" width="117.744" height="15.888"/>
		<text transform="matrix(0.9276 -0.3736 0.3736 0.9276 154.3267 250.7891)" font-family="'Consolas'" font-size="12">git add FILE2.txt</text>
	</g>
	<g>
		<rect x="399.466" y="173.768" fill="#45BEEE" width="45.956" height="30.604"/>
		<polygon fill="#45BEEE" points="442.062,158.571 442.062,218.695 482.614,188.163 		"/>
	</g>
	<rect x="395.195" y="183.069" fill="none" width="85.542" height="14"/>
	<text transform="matrix(1 0 0 1 404.9785 191.3496)" font-family="'Consolas'" font-size="12">git commit</text>
	<rect x="257" y="235.014" fill="none" width="147" height="17"/>
	<text transform="matrix(1 0 0 1 297.4766 243.6416)" font-family="'Helvetica'" font-size="12">staging area</text>
	<rect x="475" y="306" fill="none" width="147" height="17"/>
	<text transform="matrix(1 0 0 1 522.1562 314.6279)" font-family="'Helvetica'" font-size="12">repository</text>
</g>
</svg>
