<?xml version="1.0" encoding="utf-8"?>
<!-- Generator: Adobe Illustrator 15.1.0, SVG Export Plug-In . SVG Version: 6.00 Build 0)  -->
<!DOCTYPE svg PUBLIC "-//W3C//DTD SVG 1.1//EN" "http://www.w3.org/Graphics/SVG/1.1/DTD/svg11.dtd">
<svg version="1.1" xmlns="http://www.w3.org/2000/svg" xmlns:xlink="http://www.w3.org/1999/xlink" x="0px" y="0px" width="622px"
	 height="452px" viewBox="0 0 622 452" enable-background="new 0 0 622 452" xml:space="preserve">
<g id="Layer_6">
	<rect x="213.354" y="26.271" fill="#FFFFFF" stroke="#000000" stroke-miterlimit="10" width="189.901" height="148.599"/>
	<rect x="223.197" y="32" fill="none" width="195.585" height="24.449"/>
	<text transform="matrix(1 0 0 1 223.1973 38.5928)" font-family="'Helvetica'" font-size="9.168">https://github.com/vlad/planets</text>
	<g>
		<path fill="#B5B5B5" stroke="#FFFFFF" stroke-miterlimit="10" d="M386.498,66.031c0-4.319-3.502-7.82-7.822-7.82h-80.743
			c-4.319,0-7.821,3.501-7.821,7.82v87.077c0,4.319,3.502,7.82,7.821,7.82h80.743c4.32,0,7.822-3.501,7.822-7.82V66.031z"/>
		<rect x="294.824" y="65.741" fill="none" width="35" height="15"/>
		<text transform="matrix(1 0 0 1 294.8242 74.0215)" font-family="'Consolas'" font-size="12">.git</text>
	</g>
	<linearGradient id="SVGID_1_" gradientUnits="userSpaceOnUse" x1="338.4102" y1="80.7412" x2="338.4102" y2="109.3418">
		<stop  offset="0.0982" style="stop-color:#C4C4C4"/>
		<stop  offset="0.5326" style="stop-color:#686868"/>
		<stop  offset="1" style="stop-color:#000000"/>
	</linearGradient>
	<path fill="url(#SVGID_1_)" stroke="#231F20" stroke-miterlimit="10" d="M312.504,108.809c0-4.798,11.6-8.687,25.906-8.687
		c14.308,0,25.906,3.889,25.906,8.687v0.533c0,0,0-1.097,0-1.615c0-0.52,0-18.5,0-18.5v0.201c0-4.797-11.599-8.687-25.906-8.687
		c-14.307,0-25.906,3.89-25.906,8.687v-0.201c0,0,0,17.868,0,18.494s0,1.621,0,1.621V108.809z"/>
	<g>
		<path fill="#FFFFFF" stroke="#231F20" stroke-miterlimit="10" d="M364.211,129.203c0,0,0,17.982,0,18.501s0.184,1.615,0.184,1.615
			c0,4.797-11.781,8.686-26.09,8.686c-14.307,0-26.088-3.889-26.088-8.686c0,0,0.183-0.996,0.183-1.621c0-0.626,0-18.495,0-18.495
			c0,4.798,11.599,8.687,25.905,8.687C352.613,137.89,364.211,134.001,364.211,129.203z"/>
	</g>
	<g>
		<path fill="#FFFFFF" stroke="#231F20" stroke-miterlimit="10" d="M364.211,109.181c0,0,0,17.98,0,18.5
			c0,0.519,0.184,1.615,0.184,1.615c0,4.797-11.781,8.686-26.09,8.686c-14.307,0-26.088-3.889-26.088-8.686
			c0,0,0.183-0.996,0.183-1.622s0-18.493,0-18.493c0,4.797,11.599,8.686,25.905,8.686
			C352.613,117.866,364.211,113.978,364.211,109.181z"/>
	</g>
	<g>
		<path fill="#FFFFFF" stroke="#231F20" stroke-miterlimit="10" d="M364.211,89.007c0,0,0,17.98,0,18.5
			c0,0.519,0.184,1.615,0.184,1.615c0,4.798-11.781,8.687-26.09,8.687c-14.307,0-26.088-3.889-26.088-8.687
			c0,0,0.183-0.995,0.183-1.621s0-18.494,0-18.494c0,4.798,11.599,8.687,25.905,8.687C352.613,97.693,364.211,93.805,364.211,89.007
			z"/>
	</g>
	<g>
		<polygon fill="#FFFFFF" stroke="#000000" stroke-miterlimit="10" points="357.065,85.256 326.365,85.256 319.546,92.758 
			350.244,92.758 		"/>
		<line fill="none" stroke="#70BF41" stroke-width="2" x1="326.365" y1="88.324" x2="351.603" y2="88.324"/>
	</g>
	<g>
		<rect x="227.805" y="77.57" fill="#DCDEE0" width="50" height="64"/>
		<rect x="227.805" y="77.57" fill="none" stroke="#85888D" stroke-width="0.75" width="50" height="64"/>
		<line fill="none" stroke="#000000" stroke-width="0.75" x1="234.305" y1="87.57" x2="271.305" y2="87.57"/>
		<line fill="none" stroke="#000000" stroke-width="0.75" x1="234.305" y1="90.57" x2="271.305" y2="90.57"/>
		<line fill="none" stroke="#000000" stroke-width="0.75" x1="234.305" y1="93.57" x2="271.305" y2="93.57"/>
		<line fill="none" stroke="#70BF41" stroke-width="0.75" x1="234.305" y1="99.57" x2="271.305" y2="99.57"/>
	</g>
	<rect x="373.473" y="291.085" fill="#FFFFFF" stroke="#000000" stroke-miterlimit="10" width="209.901" height="148.599"/>
	<rect x="379.315" y="296.814" fill="none" width="195.585" height="24.449"/>
	<text transform="matrix(1 0 0 1 379.3154 302.7773)"><tspan x="0" y="0" font-family="'Consolas'" font-size="8.64">~vlad/planets</tspan><tspan x="0" y="10.367" font-family="'Consolas'" font-size="8.64">origin https://github.com/vlad/planets</tspan></text>
	<g>
		<path fill="#B5B5B5" stroke="#FFFFFF" stroke-miterlimit="10" d="M556.616,330.846c0-4.319-3.502-7.82-7.822-7.82h-80.743
			c-4.319,0-7.821,3.501-7.821,7.82v87.077c0,4.319,3.502,7.82,7.821,7.82h80.743c4.32,0,7.822-3.501,7.822-7.82V330.846z"/>
		<rect x="464.942" y="330.556" fill="none" width="35" height="15"/>
		<text transform="matrix(1 0 0 1 464.9424 338.8359)" font-family="'Consolas'" font-size="12">.git</text>
	</g>
	<linearGradient id="SVGID_2_" gradientUnits="userSpaceOnUse" x1="508.5283" y1="345.5557" x2="508.5283" y2="374.1562">
		<stop  offset="0.0982" style="stop-color:#C4C4C4"/>
		<stop  offset="0.5326" style="stop-color:#686868"/>
		<stop  offset="1" style="stop-color:#000000"/>
	</linearGradient>
	<path fill="url(#SVGID_2_)" stroke="#231F20" stroke-miterlimit="10" d="M482.622,373.623c0-4.798,11.6-8.687,25.906-8.687
		c14.308,0,25.906,3.889,25.906,8.687v0.533c0,0,0-1.097,0-1.615c0-0.52,0-18.5,0-18.5v0.201c0-4.797-11.599-8.687-25.906-8.687
		c-14.307,0-25.906,3.89-25.906,8.687v-0.201c0,0,0,17.868,0,18.494s0,1.621,0,1.621V373.623z"/>
	<g>
		<path fill="#FFFFFF" stroke="#231F20" stroke-miterlimit="10" d="M534.329,394.018c0,0,0,17.982,0,18.501s0.184,1.615,0.184,1.615
			c0,4.797-11.781,8.686-26.09,8.686c-14.307,0-26.088-3.889-26.088-8.686c0,0,0.183-0.996,0.183-1.621c0-0.626,0-18.495,0-18.495
			c0,4.798,11.599,8.687,25.905,8.687C522.731,402.704,534.329,398.815,534.329,394.018z"/>
	</g>
	<g>
		<path fill="#FFFFFF" stroke="#231F20" stroke-miterlimit="10" d="M534.329,373.995c0,0,0,17.98,0,18.5
			c0,0.519,0.184,1.615,0.184,1.615c0,4.797-11.781,8.686-26.09,8.686c-14.307,0-26.088-3.889-26.088-8.686
			c0,0,0.183-0.996,0.183-1.622s0-18.493,0-18.493c0,4.797,11.599,8.686,25.905,8.686
			C522.731,382.681,534.329,378.792,534.329,373.995z"/>
	</g>
	<g>
		<path fill="#FFFFFF" stroke="#231F20" stroke-miterlimit="10" d="M534.329,353.821c0,0,0,17.98,0,18.5
			c0,0.519,0.184,1.615,0.184,1.615c0,4.798-11.781,8.687-26.09,8.687c-14.307,0-26.088-3.889-26.088-8.687
			c0,0,0.183-0.995,0.183-1.621s0-18.494,0-18.494c0,4.798,11.599,8.687,25.905,8.687
			C522.731,362.508,534.329,358.619,534.329,353.821z"/>
	</g>
	<g>
		<polygon fill="#FFFFFF" stroke="#000000" stroke-miterlimit="10" points="527.184,350.07 496.483,350.07 489.664,357.572 
			520.362,357.572 		"/>
		<line fill="none" stroke="#70BF41" stroke-width="2" x1="496.483" y1="353.139" x2="521.721" y2="353.139"/>
	</g>
	<g>
		<rect x="397.923" y="342.385" fill="#DCDEE0" width="50" height="64"/>
		<rect x="397.923" y="342.385" fill="none" stroke="#85888D" stroke-width="0.75" width="50" height="64"/>
		<line fill="none" stroke="#000000" stroke-width="0.75" x1="404.423" y1="352.385" x2="441.423" y2="352.385"/>
		<line fill="none" stroke="#000000" stroke-width="0.75" x1="404.423" y1="355.385" x2="441.423" y2="355.385"/>
		<line fill="none" stroke="#000000" stroke-width="0.75" x1="404.423" y1="358.385" x2="441.423" y2="358.385"/>
		<line fill="none" stroke="#70BF41" stroke-width="0.75" x1="404.423" y1="364.385" x2="441.423" y2="364.385"/>
	</g>
	<rect x="39.396" y="291.085" fill="#FFFFFF" stroke="#000000" stroke-miterlimit="10" width="209.901" height="148.599"/>
	<rect x="45.239" y="296.814" fill="none" width="195.585" height="24.449"/>
	<text transform="matrix(1 0 0 1 45.2393 302.7773)"><tspan x="0" y="0" font-family="'Consolas'" font-size="8.64">~wolfman/planets</tspan><tspan x="0" y="10.367" font-family="'Consolas'" font-size="8.64">origin https://github.com/vlad/planets</tspan></text>
	<g>
		<path fill="#B5B5B5" stroke="#FFFFFF" stroke-miterlimit="10" d="M222.54,330.846c0-4.319-3.502-7.82-7.822-7.82h-80.743
			c-4.319,0-7.821,3.501-7.821,7.82v87.077c0,4.319,3.502,7.82,7.821,7.82h80.743c4.32,0,7.822-3.501,7.822-7.82V330.846z"/>
		<rect x="130.866" y="330.556" fill="none" width="35" height="15"/>
		<text transform="matrix(1 0 0 1 130.8662 338.8359)" font-family="'Consolas'" font-size="12">.git</text>
	</g>
	<linearGradient id="SVGID_3_" gradientUnits="userSpaceOnUse" x1="174.4521" y1="345.5557" x2="174.4521" y2="374.1562">
		<stop  offset="0.0982" style="stop-color:#C4C4C4"/>
		<stop  offset="0.5326" style="stop-color:#686868"/>
		<stop  offset="1" style="stop-color:#000000"/>
	</linearGradient>
	<path fill="url(#SVGID_3_)" stroke="#231F20" stroke-miterlimit="10" d="M148.546,373.623c0-4.798,11.6-8.687,25.906-8.687
		c14.308,0,25.906,3.889,25.906,8.687v0.533c0,0,0-1.097,0-1.615c0-0.52,0-18.5,0-18.5v0.201c0-4.797-11.599-8.687-25.906-8.687
		c-14.307,0-25.906,3.89-25.906,8.687v-0.201c0,0,0,17.868,0,18.494s0,1.621,0,1.621V373.623z"/>
	<g>
		<path fill="#FFFFFF" stroke="#231F20" stroke-miterlimit="10" d="M200.253,394.018c0,0,0,17.982,0,18.501s0.184,1.615,0.184,1.615
			c0,4.797-11.781,8.686-26.09,8.686c-14.307,0-26.088-3.889-26.088-8.686c0,0,0.183-0.996,0.183-1.621c0-0.626,0-18.495,0-18.495
			c0,4.798,11.599,8.687,25.905,8.687C188.655,402.704,200.253,398.815,200.253,394.018z"/>
	</g>
	<g>
		<path fill="#FFFFFF" stroke="#231F20" stroke-miterlimit="10" d="M200.253,373.995c0,0,0,17.98,0,18.5
			c0,0.519,0.184,1.615,0.184,1.615c0,4.797-11.781,8.686-26.09,8.686c-14.307,0-26.088-3.889-26.088-8.686
			c0,0,0.183-0.996,0.183-1.622s0-18.493,0-18.493c0,4.797,11.599,8.686,25.905,8.686
			C188.655,382.681,200.253,378.792,200.253,373.995z"/>
	</g>
	<g>
		<path fill="#FFFFFF" stroke="#231F20" stroke-miterlimit="10" d="M200.253,353.821c0,0,0,17.98,0,18.5
			c0,0.519,0.184,1.615,0.184,1.615c0,4.798-11.781,8.687-26.09,8.687c-14.307,0-26.088-3.889-26.088-8.687
			c0,0,0.183-0.995,0.183-1.621s0-18.494,0-18.494c0,4.798,11.599,8.687,25.905,8.687
			C188.655,362.508,200.253,358.619,200.253,353.821z"/>
	</g>
	<g>
		<polygon fill="#FFFFFF" stroke="#000000" stroke-miterlimit="10" points="193.107,350.07 162.407,350.07 155.588,357.572 
			186.286,357.572 		"/>
		<line fill="none" stroke="#70BF41" stroke-width="2" x1="162.407" y1="353.139" x2="187.645" y2="353.139"/>
	</g>
	<g>
		<rect x="63.847" y="342.385" fill="#DCDEE0" width="50" height="64"/>
		<rect x="63.847" y="342.385" fill="none" stroke="#85888D" stroke-width="0.75" width="50" height="64"/>
		<line fill="none" stroke="#000000" stroke-width="0.75" x1="70.347" y1="352.385" x2="107.347" y2="352.385"/>
		<line fill="none" stroke="#000000" stroke-width="0.75" x1="70.347" y1="355.385" x2="107.347" y2="355.385"/>
		<line fill="none" stroke="#000000" stroke-width="0.75" x1="70.347" y1="358.385" x2="107.347" y2="358.385"/>
		<line fill="none" stroke="#70BF41" stroke-width="0.75" x1="70.347" y1="364.385" x2="107.347" y2="364.385"/>
	</g>
</g>
<g id="Layer_5">
</g>
<g id="Layer_3">
</g>
<g id="Layer_4">
</g>
<g id="Layer_1">
</g>
<g id="Layer_2">
	<g>
		<polygon fill="#45BEEE" points="405.356,255.915 355.071,203.936 376.902,182.487 427.187,234.468 		"/>
		<polygon fill="#45BEEE" points="435.67,221.419 392.782,263.557 442.983,271.085 		"/>
	</g>
	<g>
		<polygon fill="#45BEEE" points="214.671,255.129 264.956,203.149 243.125,181.701 192.841,233.682 		"/>
		<polygon fill="#45BEEE" points="184.357,220.633 227.245,262.771 177.044,270.299 		"/>
	</g>
</g>
</svg>
