<?xml version="1.0" encoding="UTF-8" standalone="no"?>
<!-- Generator: Adobe Illustrator 15.1.0, SVG Export Plug-In . SVG Version: 6.00 Build 0)  -->

<svg
   xmlns:dc="http://purl.org/dc/elements/1.1/"
   xmlns:cc="http://creativecommons.org/ns#"
   xmlns:rdf="http://www.w3.org/1999/02/22-rdf-syntax-ns#"
   xmlns:svg="http://www.w3.org/2000/svg"
   xmlns="http://www.w3.org/2000/svg"
   xmlns:sodipodi="http://sodipodi.sourceforge.net/DTD/sodipodi-0.dtd"
   xmlns:inkscape="http://www.inkscape.org/namespaces/inkscape"
   version="1.1"
   id="Layer_1"
   x="0px"
   y="0px"
   width="398px"
   height="382px"
   viewBox="0 0 398 382"
   enable-background="new 0 0 398 382"
   xml:space="preserve"
   sodipodi:docname="merge.svg"
   inkscape:version="0.92.4 (unknown)"><metadata
   id="metadata65"><rdf:RDF><cc:Work
       rdf:about=""><dc:format>image/svg+xml</dc:format><dc:type
         rdf:resource="http://purl.org/dc/dcmitype/StillImage" /></cc:Work></rdf:RDF></metadata><defs
   id="defs63">
	
	
	
	
	
	
	
	
	
	
	
	
	

	
	
	
	
	

	
	
	
	
	
	
</defs><sodipodi:namedview
   pagecolor="#ffffff"
   bordercolor="#666666"
   borderopacity="1"
   objecttolerance="10"
   gridtolerance="10"
   guidetolerance="10"
   inkscape:pageopacity="0"
   inkscape:pageshadow="2"
   inkscape:window-width="1920"
   inkscape:window-height="1133"
   id="namedview61"
   showgrid="false"
   inkscape:zoom="0.87370262"
   inkscape:cx="192.42602"
   inkscape:cy="166.72034"
   inkscape:window-x="1920"
   inkscape:window-y="38"
   inkscape:window-maximized="1"
   inkscape:current-layer="Layer_1"
   inkscape:snap-grids="true"><inkscape:grid
     type="xygrid"
     id="grid4664" /></sodipodi:namedview>
<rect
   style="fill:#f7f7f7;stroke:#fc8d59;stroke-opacity:1;fill-opacity:1"
   id="rect2"
   height="127"
   width="100"
   y="129"
   x="266" /><rect
   style="fill:none;stroke:#85888d;stroke-width:2"
   id="rect4"
   height="127"
   width="100"
   y="129"
   x="266" /><line
   style="fill:none;stroke:#000000;stroke-width:2"
   id="line6"
   y2="149"
   x2="353"
   y1="149"
   x1="279" /><line
   style="fill:none;stroke:#f1a340;stroke-width:2;stroke-opacity:1"
   id="line8"
   y2="155"
   x2="353"
   y1="155"
   x1="279" /><line
   style="fill:none;stroke:#000000;stroke-width:2"
   id="line10"
   y2="160"
   x2="353"
   y1="160"
   x1="279" /><line
   style="fill:none;stroke:#000000;stroke-width:2;stroke-opacity:1"
   id="line12"
   y2="172"
   x2="353"
   y1="172"
   x1="279" /><rect
   style="fill:#f7f7f7;fill-opacity:1"
   id="rect14"
   height="128"
   width="100"
   y="43"
   x="33" /><rect
   style="fill:none;stroke:#85888d;stroke-width:2"
   id="rect16"
   height="128"
   width="100"
   y="43"
   x="33" /><line
   style="fill:none;stroke:#000000;stroke-width:2"
   id="line18"
   y2="63"
   x2="120"
   y1="63"
   x1="46" /><line
   style="fill:none;stroke:#f1a340;stroke-width:2;stroke-opacity:1"
   id="line20"
   y2="69"
   x2="120"
   y1="69"
   x1="46" /><line
   style="fill:none;stroke:#000000;stroke-width:2"
   id="line22"
   y2="75"
   x2="120"
   y1="75"
   x1="46" /><line
   style="fill:none;stroke:#000000;stroke-width:2;stroke-opacity:1"
   id="line24"
   y2="87"
   x2="120"
   y1="87"
   x1="46" /><path
   style="fill:#91bfdb;stroke:#f1a340;stroke-width:2;fill-opacity:1;image-rendering:auto;stroke-opacity:1"
   d="M 162 155 L 236 155 L 162 155 z "
   id="line26" />

<polygon
   fill="#45BEEE"
   points="205.711,272.768 210.008,286.822 239.666,246.316 192.428,229.32 196.725,243.375 155.825,255.879   164.812,285.271 "
   id="polygon44"
   style="fill:#d8daeb;fill-opacity:1" />
<polygon
   points="197.488,131.384 193.191,145.438 240.43,128.443 210.771,87.937 206.475,101.992 165.574,89.487   156.588,118.88 "
   id="polygon46"
   fill="#45BEEE"
   style="fill:#d8daeb;fill-opacity:1" />
<line
   style="fill:none;stroke:#998ec3;stroke-width:2;stroke-opacity:1"
   id="line50"
   y2="208"
   x2="236"
   y1="208"
   x1="162" /><line
   style="fill:none;stroke:#998ec3;stroke-width:2;stroke-opacity:1"
   id="line52"
   y2="214"
   x2="236"
   y1="214"
   x1="162" /><line
   style="fill:none;stroke:#998ec3;stroke-width:2;stroke-opacity:1"
   id="line54"
   y2="179"
   x2="353"
   y1="179"
   x1="279" /><line
   style="fill:none;stroke:#998ec3;stroke-width:2;stroke-opacity:1"
   id="line56"
   y2="185"
   x2="353"
   y1="185"
   x1="279" />
<path
   style="fill:#91bfdb;fill-opacity:0;stroke:#91bfdb;stroke-width:0.20233051;stroke-opacity:0"
   d="m 180.56518,155.88555 c 10.21893,-0.029 26.88085,-0.029 37.02648,1e-5 10.14564,0.029 1.78469,0.0527 -18.57987,0.0527 -20.36457,0 -28.66554,-0.0237 -18.44661,-0.0527 z"
   id="path4594"
   inkscape:connector-curvature="0" /><path
   style="fill:#91bfdb;fill-opacity:0;stroke:#91bfdb;stroke-width:0.20233051;stroke-opacity:0"
   d="m 162.08647,154.92447 v -0.91049 h 36.92532 36.92532 v 0.91049 0.91049 h -36.92532 -36.92532 z"
   id="path4598"
   inkscape:connector-curvature="0" /><rect
   style="fill:#f7f7f7;fill-opacity:1;stroke:#fc8d59;stroke-opacity:1"
   id="rect2-3"
   height="127"
   width="100"
   y="221"
   x="33" /><rect
   style="fill:none;stroke:#85888d;stroke-width:2"
   id="rect4-6"
   height="127"
   width="100"
   y="221"
   x="33" /><line
   style="fill:none;stroke:#000000;stroke-width:2"
   id="line6-7"
   y2="241"
   x2="120"
   y1="241"
   x1="46" /><line
   style="fill:none;stroke:#000000;stroke-width:2;stroke-opacity:1"
   id="line8-5"
   y2="247"
   x2="120"
   y1="247"
   x1="46" /><line
   style="fill:none;stroke:#000000;stroke-width:2"
   id="line10-3"
   y2="252"
   x2="120"
   y1="252"
   x1="46" /><line
   style="fill:none;stroke:#000000;stroke-width:2;stroke-opacity:1"
   id="line12-5"
   y2="264"
   x2="120"
   y1="264"
   x1="46" /><line
   style="fill:none;stroke:#998ec3;stroke-width:2;stroke-opacity:1"
   id="line54-6"
   y2="271"
   x2="120"
   y1="271"
   x1="46" /><line
   style="fill:none;stroke:#998ec3;stroke-width:2;stroke-opacity:1"
   id="line56-2"
   y2="277"
   x2="120"
   y1="277"
   x1="46" /></svg>