<?xml version="1.0" encoding="utf-8"?>
<!-- Generator: Adobe Illustrator 23.0.3, SVG Export Plug-In . SVG Version: 6.00 Build 0)  -->
<svg version="1.1"
	 id="Layer_1" xmlns:cc="http://creativecommons.org/ns#" xmlns:dc="http://purl.org/dc/elements/1.1/" xmlns:inkscape="http://www.inkscape.org/namespaces/inkscape" xmlns:rdf="http://www.w3.org/1999/02/22-rdf-syntax-ns#" xmlns:sodipodi="http://sodipodi.sourceforge.net/DTD/sodipodi-0.dtd" xmlns:svg="http://www.w3.org/2000/svg"
	 xmlns="http://www.w3.org/2000/svg" xmlns:xlink="http://www.w3.org/1999/xlink" x="0px" y="0px" viewBox="0 0 398 382"
	 style="enable-background:new 0 0 398 382;" xml:space="preserve">
<style type="text/css">
	.st0{fill:#F7F7F7;stroke:#FC8D59;}
	.st1{fill:none;stroke:#85888D;stroke-width:2;}
	.st2{fill:none;stroke:#000000;stroke-width:2;}
	.st3{fill:none;stroke:#F1A340;stroke-width:2;}
	.st4{fill:none;stroke:#F1A340;stroke-width:2;stroke-dasharray:5.1437,5.4482;}
	.st5{fill:#F7F7F7;}
	.st6{fill:none;stroke:#F1A340;stroke-width:2;stroke-dasharray:5.3077,5.3077;}
	.st7{fill:#91BFDB;}
	.st8{fill:none;stroke:#F1A340;stroke-width:2;stroke-dasharray:5.1436,5.4483;}
	.st9{fill:#D8DAEB;}
	.st10{fill:none;stroke:#998EC3;stroke-width:2;}
	.st11{fill:none;stroke:#998EC3;stroke-width:2;stroke-dasharray:3.0832,3.0832;}
	.st12{fill:#91BFDB;fill-opacity:0;stroke:#91BFDB;stroke-width:0.2023;stroke-opacity:0;}
	.st13{opacity:0;}
	.st14{fill:none;stroke:#91BFDB;stroke-width:0.202;}
	.st15{fill:none;stroke:#91BFDB;stroke-width:0.202;stroke-dasharray:5.2962,5.2962;}
</style>
<sodipodi:namedview  bordercolor="#666666" borderopacity="1" gridtolerance="10" guidetolerance="10" id="namedview61" inkscape:current-layer="Layer_1" inkscape:cx="192.42602" inkscape:cy="166.72034" inkscape:pageopacity="0" inkscape:pageshadow="2" inkscape:snap-grids="true" inkscape:window-height="1133" inkscape:window-maximized="1" inkscape:window-width="1920" inkscape:window-x="1920" inkscape:window-y="38" inkscape:zoom="0.87370262" objecttolerance="10" pagecolor="#ffffff" showgrid="false">
	<inkscape:grid  id="grid4664" type="xygrid"></inkscape:grid>
</sodipodi:namedview>
<rect id="rect2" x="266" y="129" class="st0" width="100" height="127"/>
<rect id="rect4" x="266" y="129" class="st1" width="100" height="127"/>
<line id="line6" class="st2" x1="279" y1="149" x2="353" y2="149"/>
<g id="line8">
	<g>
		<line class="st3" x1="279" y1="155" x2="281.5" y2="155"/>
		<line class="st4" x1="286.9" y1="155" x2="347.8" y2="155"/>
		<line class="st3" x1="350.5" y1="155" x2="353" y2="155"/>
	</g>
</g>
<line id="line10" class="st2" x1="279" y1="160" x2="353" y2="160"/>
<line id="line12" class="st2" x1="279" y1="172" x2="353" y2="172"/>
<rect id="rect14" x="33" y="43" class="st5" width="100" height="128"/>
<rect id="rect16" x="33" y="43" class="st1" width="100" height="128"/>
<line id="line18" class="st2" x1="46" y1="63" x2="120" y2="63"/>
<g id="line20">
	<g>
		<line class="st3" x1="46" y1="69" x2="48.5" y2="69"/>
		<line class="st6" x1="53.8" y1="69" x2="114.8" y2="69"/>
		<line class="st3" x1="117.5" y1="69" x2="120" y2="69"/>
	</g>
</g>
<line id="line22" class="st2" x1="46" y1="75" x2="120" y2="75"/>
<line id="line24" class="st2" x1="46" y1="87" x2="120" y2="87"/>
<g id="line26">
	<path class="st7" d="M162,155h74H162z"/>
	<g>
		<polyline class="st3" points="164.5,155 162,155 164.5,155 		"/>
		<line class="st8" x1="169.9" y1="155" x2="230.8" y2="155"/>
		<polyline class="st3" points="233.5,155 236,155 233.5,155 		"/>
		<line class="st8" x1="228.1" y1="155" x2="167.2" y2="155"/>
	</g>
</g>
<polygon id="polygon44" class="st9" points="205.7,272.8 210,286.8 239.7,246.3 192.4,229.3 196.7,243.4 155.8,255.9 164.8,285.3 
	"/>
<polygon id="polygon46" class="st9" points="197.5,131.4 193.2,145.4 240.4,128.4 210.8,87.9 206.5,102 165.6,89.5 156.6,118.9 "/>
<g id="line50">
	<g>
		<line class="st10" x1="162" y1="208" x2="163.5" y2="208"/>
		<line class="st11" x1="166.6" y1="208" x2="232.9" y2="208"/>
		<line class="st10" x1="234.5" y1="208" x2="236" y2="208"/>
	</g>
</g>
<g id="line52">
	<g>
		<line class="st10" x1="162" y1="214" x2="163.5" y2="214"/>
		<line class="st11" x1="166.6" y1="214" x2="232.9" y2="214"/>
		<line class="st10" x1="234.5" y1="214" x2="236" y2="214"/>
	</g>
</g>
<g id="line54">
	<g>
		<line class="st10" x1="279" y1="179" x2="280.5" y2="179"/>
		<line class="st11" x1="283.6" y1="179" x2="349.9" y2="179"/>
		<line class="st10" x1="351.5" y1="179" x2="353" y2="179"/>
	</g>
</g>
<g id="line56">
	<g>
		<line class="st10" x1="279" y1="185" x2="280.5" y2="185"/>
		<line class="st11" x1="283.6" y1="185" x2="349.9" y2="185"/>
		<line class="st10" x1="351.5" y1="185" x2="353" y2="185"/>
	</g>
</g>
<path id="path4594" inkscape:connector-curvature="0" class="st12" d="M180.6,155.9c10.2,0,26.9,0,37,0s1.8,0.1-18.6,0.1
	S170.3,155.9,180.6,155.9L180.6,155.9z"/>
<g id="path4598" inkscape:connector-curvature="0">
	<g class="st13">
		<polyline class="st14" points="164.6,155.8 162.1,155.8 162.1,154.9 162.1,154 164.6,154 		"/>
		<polyline class="st15" points="169.9,154 199,154 230.8,154 		"/>
		<polyline class="st14" points="233.4,154 235.9,154 235.9,154.9 235.9,155.8 233.4,155.8 		"/>
		<polyline class="st15" points="228.1,155.8 199,155.8 167.2,155.8 		"/>
	</g>
</g>
<rect id="rect2-3" x="33" y="221" class="st0" width="100" height="127"/>
<rect id="rect4-6" x="33" y="221" class="st1" width="100" height="127"/>
<line id="line6-7" class="st2" x1="46" y1="241" x2="120" y2="241"/>
<line id="line8-5" class="st2" x1="46" y1="247" x2="120" y2="247"/>
<line id="line10-3" class="st2" x1="46" y1="252" x2="120" y2="252"/>
<line id="line12-5" class="st2" x1="46" y1="264" x2="120" y2="264"/>
<g id="line54-6">
	<g>
		<line class="st10" x1="46" y1="271" x2="47.5" y2="271"/>
		<line class="st11" x1="50.6" y1="271" x2="116.9" y2="271"/>
		<line class="st10" x1="118.5" y1="271" x2="120" y2="271"/>
	</g>
</g>
<g id="line56-2">
	<g>
		<line class="st10" x1="46" y1="277" x2="47.5" y2="277"/>
		<line class="st11" x1="50.6" y1="277" x2="116.9" y2="277"/>
		<line class="st10" x1="118.5" y1="277" x2="120" y2="277"/>
	</g>
</g>
</svg>