<svg xmlns="http://www.w3.org/2000/svg" viewBox="0 0 544.44 126.65"><defs><style>.cls-1{fill:#dcdee0;}.cls-1,.cls-4,.cls-5{stroke:#000;}.cls-1,.cls-2,.cls-4,.cls-5{stroke-miterlimit:10;}.cls-2,.cls-4,.cls-5{fill:none;}.cls-2{stroke:#4dc5f4;stroke-width:26px;}.cls-3{fill:#4dc5f4;}.cls-4,.cls-5{stroke-width:2px;}.cls-5{stroke-dasharray:5 5;}</style></defs><title>Asset 3</title><g id="Layer_2" data-name="Layer 2"><g id="Layer_1-2" data-name="Layer 1"><rect class="cls-1" x="0.5" y="0.5" width="99.47" height="125.65"/><rect class="cls-1" x="221.71" y="0.5" width="99.47" height="125.65"/><rect class="cls-1" x="444.47" y="0.5" width="99.47" height="125.65"/><line class="cls-2" x1="123.97" y1="63.33" x2="164.12" y2="63.33"/><polygon class="cls-3" points="157.29 86.66 197.71 63.33 157.29 39.99 157.29 86.66"/><line class="cls-2" x1="345.96" y1="63.33" x2="386.11" y2="63.33"/><polygon class="cls-3" points="379.28 86.66 419.69 63.33 379.28 39.99 379.28 86.66"/><line class="cls-4" x1="12.84" y1="20.03" x2="86.58" y2="20.03"/><line class="cls-4" x1="12.84" y1="27.13" x2="86.58" y2="27.13"/><line class="cls-4" x1="12.84" y1="34.22" x2="86.58" y2="34.22"/><line class="cls-4" x1="12.84" y1="48.41" x2="86.58" y2="48.41"/><line class="cls-4" x1="234.58" y1="20.03" x2="308.31" y2="20.03"/><line class="cls-4" x1="234.58" y1="27.13" x2="308.31" y2="27.13"/><line class="cls-4" x1="234.58" y1="34.22" x2="308.31" y2="34.22"/><line class="cls-4" x1="457.34" y1="20.03" x2="531.08" y2="20.03"/><line class="cls-4" x1="457.34" y1="27.13" x2="531.08" y2="27.13"/><line class="cls-4" x1="457.34" y1="34.22" x2="531.08" y2="34.22"/><line class="cls-5" x1="234.58" y1="48.41" x2="308.31" y2="48.41"/><line class="cls-5" x1="457.34" y1="48.41" x2="531.08" y2="48.41"/><line class="cls-5" x1="123.97" y1="27.13" x2="197.71" y2="27.13"/><line class="cls-5" x1="345.96" y1="24.13" x2="419.69" y2="24.13"/><line class="cls-5" x1="345.96" y1="31.22" x2="419.69" y2="31.22"/><line class="cls-5" x1="345.96" y1="17.03" x2="419.69" y2="17.03"/><line class="cls-5" x1="457.34" y1="70.42" x2="531.08" y2="70.42"/><line class="cls-5" x1="457.34" y1="77.51" x2="531.08" y2="77.51"/><line class="cls-5" x1="457.34" y1="63.33" x2="531.08" y2="63.33"/></g></g></svg>