<?xml version="1.0" encoding="utf-8"?>
<!-- Generator: Adobe Illustrator 23.0.3, SVG Export Plug-In . SVG Version: 6.00 Build 0)  -->
<svg version="1.1"
	 id="svg979" xmlns:cc="http://creativecommons.org/ns#" xmlns:dc="http://purl.org/dc/elements/1.1/" xmlns:inkscape="http://www.inkscape.org/namespaces/inkscape" xmlns:rdf="http://www.w3.org/1999/02/22-rdf-syntax-ns#" xmlns:sodipodi="http://sodipodi.sourceforge.net/DTD/sodipodi-0.dtd" xmlns:svg="http://www.w3.org/2000/svg"
	 xmlns="http://www.w3.org/2000/svg" xmlns:xlink="http://www.w3.org/1999/xlink" x="0px" y="0px" viewBox="0 0 615 196.5"
	 style="enable-background:new 0 0 615 196.5;" xml:space="preserve">
<style type="text/css">
	.st0{clip-path:url(#SVGID_2_);fill:#F7F7F7;}
	.st1{clip-path:url(#SVGID_4_);fill:#F7F7F7;stroke:#85888D;stroke-width:2;}
	.st2{clip-path:url(#SVGID_6_);fill:none;stroke:#000000;stroke-width:2;}
	.st3{clip-path:url(#SVGID_8_);fill:none;stroke:#000000;stroke-width:2;}
	.st4{clip-path:url(#SVGID_10_);fill:none;stroke:#000000;stroke-width:2;}
	.st5{clip-path:url(#SVGID_12_);fill:none;stroke:#000000;stroke-width:2;}
	.st6{fill:#F7F7F7;}
	.st7{fill:none;stroke:#85888D;stroke-width:2;}
	.st8{fill:none;stroke:#000000;stroke-width:2;}
	.st9{fill:none;stroke:#F1A340;stroke-width:2;}
	.st10{fill:none;stroke:#F1A340;stroke-width:2;stroke-dasharray:5.2308,5.2308;}
	.st11{fill:none;stroke:#F1A340;stroke-width:2;stroke-dasharray:5.3077,5.3077;}
	.st12{fill:#D8DAEB;}
</style>
<sodipodi:namedview  bordercolor="#666666" borderopacity="1" gridtolerance="10" guidetolerance="10" id="namedview981" inkscape:current-layer="svg979" inkscape:cx="218.68789" inkscape:cy="96.340062" inkscape:pageopacity="0" inkscape:pageshadow="2" inkscape:window-height="1133" inkscape:window-maximized="1" inkscape:window-width="1920" inkscape:window-x="1920" inkscape:window-y="38" inkscape:zoom="1.4809" objecttolerance="10" pagecolor="#ffffff" showgrid="false">
	</sodipodi:namedview>
<g id="g1004">
	<g id="g851">
		<g>
			<defs>
				<rect id="SVGID_1_" x="34.5" y="28.4" width="104" height="131.2"/>
			</defs>
			<clipPath id="SVGID_2_">
				<use xlink:href="#SVGID_1_"  style="overflow:visible;"/>
			</clipPath>
			<rect id="rect847" x="37" y="30" class="st0" width="100" height="128"/>
		</g>
		<g>
			<defs>
				<rect id="SVGID_3_" x="34.5" y="28.4" width="104" height="131.2"/>
			</defs>
			<clipPath id="SVGID_4_">
				<use xlink:href="#SVGID_3_"  style="overflow:visible;"/>
			</clipPath>
			<rect id="rect849" x="37" y="30" class="st1" width="100" height="128"/>
		</g>
	</g>
	<g id="g861">
		<g>
			<defs>
				<rect id="SVGID_5_" x="48.6" y="48.3" width="75.8" height="4"/>
			</defs>
			<clipPath id="SVGID_6_">
				<use xlink:href="#SVGID_5_"  style="overflow:visible;"/>
			</clipPath>
			<line id="line859" class="st2" x1="50" y1="50" x2="123" y2="50"/>
		</g>
	</g>
	<g id="g871">
		<g>
			<defs>
				<rect id="SVGID_7_" x="48.6" y="54.1" width="75.8" height="4"/>
			</defs>
			<clipPath id="SVGID_8_">
				<use xlink:href="#SVGID_7_"  style="overflow:visible;"/>
			</clipPath>
			<line id="line869" class="st3" x1="50" y1="56" x2="123" y2="56"/>
		</g>
	</g>
	<g id="g881">
		<g>
			<defs>
				<rect id="SVGID_9_" x="48.6" y="59.9" width="75.8" height="4"/>
			</defs>
			<clipPath id="SVGID_10_">
				<use xlink:href="#SVGID_9_"  style="overflow:visible;"/>
			</clipPath>
			<line id="line879" class="st4" x1="50" y1="62" x2="123" y2="62"/>
		</g>
	</g>
	<g id="g891">
		<g>
			<defs>
				<rect id="SVGID_11_" x="48.6" y="71.6" width="75.8" height="4"/>
			</defs>
			<clipPath id="SVGID_12_">
				<use xlink:href="#SVGID_11_"  style="overflow:visible;"/>
			</clipPath>
			<line id="line889" class="st5" x1="50" y1="74" x2="123" y2="74"/>
		</g>
	</g>
	<rect id="rect893" x="258" y="30" class="st6" width="100" height="128"/>
	<rect id="rect895" x="258" y="30" class="st7" width="100" height="128"/>
	<line id="line897" class="st8" x1="272" y1="50" x2="345" y2="50"/>
	<line id="line899" class="st8" x1="272" y1="56" x2="345" y2="56"/>
	<line id="line901" class="st8" x1="272" y1="62" x2="345" y2="62"/>
	<g id="line903">
		<g>
			<line class="st9" x1="272" y1="74" x2="274.5" y2="74"/>
			<line class="st10" x1="279.7" y1="74" x2="339.9" y2="74"/>
			<line class="st9" x1="342.5" y1="74" x2="345" y2="74"/>
		</g>
	</g>
	<g id="line905">
		<g>
			<line class="st9" x1="160" y1="55" x2="162.5" y2="55"/>
			<line class="st11" x1="167.8" y1="55" x2="228.8" y2="55"/>
			<line class="st9" x1="231.5" y1="55" x2="234" y2="55"/>
		</g>
	</g>
	<rect id="rect907" x="481" y="31" class="st6" width="100" height="128"/>
	<rect id="rect909" x="481" y="31" class="st7" width="100" height="128"/>
	<line id="line911" class="st8" x1="495" y1="51" x2="568" y2="51"/>
	<line id="line913" class="st8" x1="495" y1="57" x2="568" y2="57"/>
	<line id="line915" class="st8" x1="495" y1="63" x2="568" y2="63"/>
	<g id="line917">
		<g>
			<line class="st9" x1="495" y1="75" x2="497.5" y2="75"/>
			<line class="st10" x1="502.7" y1="75" x2="562.9" y2="75"/>
			<line class="st9" x1="565.5" y1="75" x2="568" y2="75"/>
		</g>
	</g>
	<g id="line919">
		<g>
			<line class="st9" x1="495" y1="86" x2="497.5" y2="86"/>
			<line class="st10" x1="502.7" y1="86" x2="562.9" y2="86"/>
			<line class="st9" x1="565.5" y1="86" x2="568" y2="86"/>
		</g>
	</g>
	<g id="line921">
		<g>
			<line class="st9" x1="495" y1="92" x2="497.5" y2="92"/>
			<line class="st10" x1="502.7" y1="92" x2="562.9" y2="92"/>
			<line class="st9" x1="565.5" y1="92" x2="568" y2="92"/>
		</g>
	</g>
	<g id="line923">
		<g>
			<line class="st9" x1="495" y1="98" x2="497.5" y2="98"/>
			<line class="st10" x1="502.7" y1="98" x2="562.9" y2="98"/>
			<line class="st9" x1="565.5" y1="98" x2="568" y2="98"/>
		</g>
	</g>
	<g id="line925">
		<g>
			<line class="st9" x1="383" y1="49" x2="385.5" y2="49"/>
			<line class="st11" x1="390.8" y1="49" x2="451.8" y2="49"/>
			<line class="st9" x1="454.5" y1="49" x2="457" y2="49"/>
		</g>
	</g>
	<g id="line927">
		<g>
			<line class="st9" x1="383" y1="55" x2="385.5" y2="55"/>
			<line class="st11" x1="390.8" y1="55" x2="451.8" y2="55"/>
			<line class="st9" x1="454.5" y1="55" x2="457" y2="55"/>
		</g>
	</g>
	<g id="line929">
		<g>
			<line class="st9" x1="383" y1="61" x2="385.5" y2="61"/>
			<line class="st11" x1="390.8" y1="61" x2="451.8" y2="61"/>
			<line class="st9" x1="454.5" y1="61" x2="457" y2="61"/>
		</g>
	</g>
	<g id="g967">
		<rect id="rect961" x="163.9" y="85.3" class="st12" width="44.9" height="26.9"/>
		<g id="g965">
			<polygon id="polygon963" class="st12" points="239.3,98.6 200.9,71.7 200.9,125.4 			"/>
		</g>
	</g>
	<g id="g975">
		<rect id="rect969" x="383" y="85.3" class="st12" width="44.9" height="26.9"/>
		<g id="g973">
			<polygon id="polygon971" class="st12" points="458.4,98.6 420,71.7 420,125.4 			"/>
		</g>
	</g>
</g>
</svg>
