<?xml version="1.0" encoding="utf-8"?>
<!-- Generator: Adobe Illustrator 15.1.0, SVG Export Plug-In . SVG Version: 6.00 Build 0)  -->
<!DOCTYPE svg PUBLIC "-//W3C//DTD SVG 1.1//EN" "http://www.w3.org/Graphics/SVG/1.1/DTD/svg11.dtd">
<svg version="1.1" xmlns="http://www.w3.org/2000/svg" xmlns:xlink="http://www.w3.org/1999/xlink" x="0px" y="0px" width="615px"
	 height="572.5px" viewBox="0 0 615 572.5" enable-background="new 0 0 615 572.5" xml:space="preserve">
<g id="Layer_1">
	<g>
		<defs>
			<rect id="SVGID_1_" x="34.52" y="404.419" width="104" height="131.217"/>
		</defs>
		<clipPath id="SVGID_2_">
			<use xlink:href="#SVGID_1_"  overflow="visible"/>
		</clipPath>
		<rect x="37" y="406" clip-path="url(#SVGID_2_)" fill="#DCDEE0" width="100" height="128"/>
		<rect x="37" y="406" clip-path="url(#SVGID_2_)" fill="none" stroke="#85888D" stroke-width="2" width="100" height="128"/>
	</g>
	<g>
		<defs>
			<rect id="SVGID_3_" x="48.635" y="424.268" width="75.805" height="4"/>
		</defs>
		<clipPath id="SVGID_4_">
			<use xlink:href="#SVGID_3_"  overflow="visible"/>
		</clipPath>
		<line clip-path="url(#SVGID_4_)" fill="none" stroke="#000000" stroke-width="2" x1="50" y1="426" x2="123" y2="426"/>
	</g>
	<g>
		<defs>
			<rect id="SVGID_5_" x="48.635" y="430.097" width="75.805" height="4"/>
		</defs>
		<clipPath id="SVGID_6_">
			<use xlink:href="#SVGID_5_"  overflow="visible"/>
		</clipPath>
		<line clip-path="url(#SVGID_6_)" fill="none" stroke="#000000" stroke-width="2" x1="50" y1="432" x2="123" y2="432"/>
	</g>
	<g>
		<defs>
			<rect id="SVGID_7_" x="48.635" y="435.926" width="75.805" height="4"/>
		</defs>
		<clipPath id="SVGID_8_">
			<use xlink:href="#SVGID_7_"  overflow="visible"/>
		</clipPath>
		<line clip-path="url(#SVGID_8_)" fill="none" stroke="#000000" stroke-width="2" x1="50" y1="438" x2="123" y2="438"/>
	</g>
	<g>
		<defs>
			<rect id="SVGID_9_" x="48.635" y="447.585" width="75.805" height="4"/>
		</defs>
		<clipPath id="SVGID_10_">
			<use xlink:href="#SVGID_9_"  overflow="visible"/>
		</clipPath>
		<line clip-path="url(#SVGID_10_)" fill="none" stroke="#000000" stroke-width="2" x1="50" y1="450" x2="123" y2="450"/>
	</g>
	<g>
		<rect x="258" y="406" fill="#DCDEE0" width="100" height="128"/>
		<rect x="258" y="406" fill="none" stroke="#85888D" stroke-width="2" width="100" height="128"/>
		<line fill="none" stroke="#000000" stroke-width="2" x1="272" y1="426" x2="345" y2="426"/>
		<line fill="none" stroke="#000000" stroke-width="2" x1="272" y1="432" x2="345" y2="432"/>
		<line fill="none" stroke="#000000" stroke-width="2" x1="272" y1="438" x2="345" y2="438"/>
		<line fill="none" stroke="#70BF41" stroke-width="2" x1="272" y1="450" x2="345" y2="450"/>
		<line fill="none" stroke="#70BF41" stroke-width="2" x1="160" y1="431" x2="234" y2="431"/>
		<rect x="481" y="407" fill="#DCDEE0" width="100" height="128"/>
		<rect x="481" y="407" fill="none" stroke="#85888D" stroke-width="2" width="100" height="128"/>
		<line fill="none" stroke="#000000" stroke-width="2" x1="495" y1="427" x2="568" y2="427"/>
		<line fill="none" stroke="#000000" stroke-width="2" x1="495" y1="433" x2="568" y2="433"/>
		<line fill="none" stroke="#000000" stroke-width="2" x1="495" y1="439" x2="568" y2="439"/>
		<line fill="none" stroke="#70BF41" stroke-width="2" x1="495" y1="451" x2="568" y2="451"/>
		<line fill="none" stroke="#70BF41" stroke-width="2" x1="495" y1="462" x2="568" y2="462"/>
		<line fill="none" stroke="#70BF41" stroke-width="2" x1="495" y1="468" x2="568" y2="468"/>
		<line fill="none" stroke="#70BF41" stroke-width="2" x1="495" y1="474" x2="568" y2="474"/>
		<line fill="none" stroke="#70BF41" stroke-width="2" x1="383" y1="425" x2="457" y2="425"/>
		<line fill="none" stroke="#70BF41" stroke-width="2" x1="383" y1="431" x2="457" y2="431"/>
		<line fill="none" stroke="#70BF41" stroke-width="2" x1="383" y1="437" x2="457" y2="437"/>
		<line fill="none" stroke="#70BF41" stroke-width="2" x1="429" y1="267.141" x2="503" y2="267.141"/>
		<line fill="none" stroke="#70BF41" stroke-width="2" x1="429" y1="273.141" x2="503" y2="273.141"/>
		<line fill="none" stroke="#70BF41" stroke-width="2" x1="429" y1="279.141" x2="503" y2="279.141"/>
		<g>
			<defs>
				<rect id="SVGID_11_" x="157.116" y="441.521" width="88.974" height="66.13"/>
			</defs>
			<clipPath id="SVGID_12_">
				<use xlink:href="#SVGID_11_"  overflow="visible"/>
			</clipPath>
		</g>
		<line fill="none" stroke="#70BF41" stroke-width="2" x1="250.608" y1="348.141" x2="324.608" y2="348.141"/>
	</g>
	<g>
		<g>
			<defs>
				<rect id="SVGID_13_" x="-203" y="-101" width="1024" height="768"/>
			</defs>
			<clipPath id="SVGID_14_">
				<use xlink:href="#SVGID_13_"  overflow="visible"/>
			</clipPath>
		</g>
	</g>
	<g>
		<g>
			<defs>
				<rect id="SVGID_15_" x="375.494" y="449.597" width="88.974" height="66.129"/>
			</defs>
			<clipPath id="SVGID_16_">
				<use xlink:href="#SVGID_15_"  overflow="visible"/>
			</clipPath>
		</g>
	</g>
	<rect x="151" y="514" fill="none" width="94" height="35"/>
	<text transform="matrix(1 0 0 1 173.9961 523.7061)" font-family="'Helvetica-Bold'" font-size="13.5">commit</text>
	<rect x="371.384" y="514" fill="none" width="94" height="35"/>
	<text transform="matrix(1 0 0 1 394.3799 523.7061)" font-family="'Helvetica-Bold'" font-size="13.5">commit</text>
	<rect x="123.608" y="348.141" fill="none" width="94" height="35"/>
	<text transform="matrix(1 0 0 1 154.4849 357.8467)" font-family="'Helvetica-Bold'" font-size="13.5">push</text>
	<rect x="306.688" y="285.866" fill="none" width="94" height="35"/>
	<text transform="matrix(1 0 0 1 337.5645 295.5723)" font-family="'Helvetica-Bold'" font-size="13.5">push</text>
	<g opacity="0.5">
		<rect x="163.931" y="461.276" fill="#009CFD" width="44.865" height="26.919"/>
		<g>
			<polygon fill="#009CFD" points="200.941,501.429 239.275,474.588 200.941,447.743 			"/>
		</g>
	</g>
	<g opacity="0.5">
		<rect x="383.016" y="461.276" fill="#009CFD" width="44.865" height="26.919"/>
		<g>
			<polygon fill="#009CFD" points="420.026,501.429 458.359,474.588 420.026,447.743 			"/>
		</g>
	</g>
	<g opacity="0.5">
		
			<rect x="194.19" y="352.783" transform="matrix(0.4072 -0.9134 0.9134 0.4072 -206.3342 408.0012)" fill="#009CFD" width="33.872" height="20.323"/>
		<g>
			<polygon fill="#009CFD" points="234.014,361.098 227.288,326.413 196.994,344.595 			"/>
		</g>
	</g>
	<g opacity="0.5">
		
			<rect x="382.472" y="277.037" transform="matrix(-0.4412 -0.8974 0.8974 -0.4412 317.9023 772.3449)" fill="#009CFD" width="33.873" height="20.323"/>
		<g>
			<polygon fill="#009CFD" points="412.637,268.431 381.682,251.4 376.264,286.313 			"/>
		</g>
	</g>
</g>
<g id="Layer_2">
	<path fill="#4D4B45" d="M406.359,29.392c0-8.284-6.716-15-15-15H241.98c-8.284,0-15,6.716-15,15v186.41c0,8.284,6.716,15,15,15
		h149.379c8.284,0,15-6.716,15-15V29.392z"/>
	<g>
		<g>
			<defs>
				<rect id="SVGID_17_" x="264.67" y="56.988" width="104" height="131.217"/>
			</defs>
			<clipPath id="SVGID_18_">
				<use xlink:href="#SVGID_17_"  overflow="visible"/>
			</clipPath>
			<rect x="267.15" y="58.569" clip-path="url(#SVGID_18_)" fill="#DCDEE0" width="100" height="128"/>
			
				<rect x="267.15" y="58.569" clip-path="url(#SVGID_18_)" fill="none" stroke="#85888D" stroke-width="2" width="100" height="128"/>
		</g>
		<g>
			<defs>
				<rect id="SVGID_19_" x="278.785" y="76.837" width="75.806" height="4"/>
			</defs>
			<clipPath id="SVGID_20_">
				<use xlink:href="#SVGID_19_"  overflow="visible"/>
			</clipPath>
			
				<line clip-path="url(#SVGID_20_)" fill="none" stroke="#000000" stroke-width="2" x1="280.15" y1="78.569" x2="353.15" y2="78.569"/>
		</g>
		<g>
			<defs>
				<rect id="SVGID_21_" x="278.785" y="82.666" width="75.806" height="4"/>
			</defs>
			<clipPath id="SVGID_22_">
				<use xlink:href="#SVGID_21_"  overflow="visible"/>
			</clipPath>
			
				<line clip-path="url(#SVGID_22_)" fill="none" stroke="#000000" stroke-width="2" x1="280.15" y1="84.569" x2="353.15" y2="84.569"/>
		</g>
		<g>
			<defs>
				<rect id="SVGID_23_" x="278.785" y="88.495" width="75.806" height="4"/>
			</defs>
			<clipPath id="SVGID_24_">
				<use xlink:href="#SVGID_23_"  overflow="visible"/>
			</clipPath>
			
				<line clip-path="url(#SVGID_24_)" fill="none" stroke="#000000" stroke-width="2" x1="280.15" y1="90.569" x2="353.15" y2="90.569"/>
		</g>
		<g>
			<defs>
				<rect id="SVGID_25_" x="278.785" y="100.154" width="75.806" height="4"/>
			</defs>
			<clipPath id="SVGID_26_">
				<use xlink:href="#SVGID_25_"  overflow="visible"/>
			</clipPath>
			
				<line clip-path="url(#SVGID_26_)" fill="none" stroke="#000000" stroke-width="2" x1="280.15" y1="102.569" x2="353.15" y2="102.569"/>
		</g>
	</g>
</g>
</svg>
