<?xml version="1.0" encoding="utf-8"?>
<!-- Generator: Adobe Illustrator 23.0.3, SVG Export Plug-In . SVG Version: 6.00 Build 0)  -->
<svg version="1.1"
	 id="Layer_1" xmlns:cc="http://creativecommons.org/ns#" xmlns:dc="http://purl.org/dc/elements/1.1/" xmlns:inkscape="http://www.inkscape.org/namespaces/inkscape" xmlns:rdf="http://www.w3.org/1999/02/22-rdf-syntax-ns#" xmlns:sodipodi="http://sodipodi.sourceforge.net/DTD/sodipodi-0.dtd" xmlns:svg="http://www.w3.org/2000/svg"
	 xmlns="http://www.w3.org/2000/svg" xmlns:xlink="http://www.w3.org/1999/xlink" x="0px" y="0px" viewBox="0 0 384 354"
	 style="enable-background:new 0 0 384 354;" xml:space="preserve">
<style type="text/css">
	.st0{clip-path:url(#SVGID_2_);fill:#F7F7F7;}
	.st1{clip-path:url(#SVGID_4_);fill:#F7F7F7;stroke:#85888D;stroke-width:2;}
	.st2{clip-path:url(#SVGID_6_);fill:none;stroke:#000000;stroke-width:2;}
	.st3{clip-path:url(#SVGID_8_);fill:none;stroke:#000000;stroke-width:2;}
	.st4{clip-path:url(#SVGID_10_);fill:none;stroke:#000000;stroke-width:2;}
	.st5{clip-path:url(#SVGID_12_);fill:none;stroke:#000000;stroke-width:2;}
	.st6{clip-path:url(#SVGID_14_);fill:#F7F7F7;}
	.st7{clip-path:url(#SVGID_16_);fill:#F7F7F7;stroke:#85888D;stroke-width:2;}
	.st8{clip-path:url(#SVGID_18_);fill:none;stroke:#000000;stroke-width:2;}
	.st9{clip-path:url(#SVGID_20_);}
	.st10{fill:none;stroke:#F1A340;stroke-width:2;}
	.st11{fill:none;stroke:#F1A340;stroke-width:2;stroke-dasharray:5.3077,5.3077;}
	.st12{clip-path:url(#SVGID_22_);fill:none;stroke:#000000;stroke-width:2;}
	.st13{clip-path:url(#SVGID_24_);fill:none;stroke:#00000F;stroke-width:2;stroke-opacity:0.9412;}
	.st14{clip-path:url(#SVGID_26_);}
	.st15{fill:#D8DAEB;stroke:#D8DAEB;}
	.st16{clip-path:url(#SVGID_28_);}
	.st17{fill:none;stroke:#998EC3;stroke-width:2;}
	.st18{fill:none;stroke:#998EC3;stroke-width:2;stroke-dasharray:3.0435,3.0435;}
	.st19{clip-path:url(#SVGID_30_);}
	.st20{fill:#F7F7F7;stroke:#FC8D59;}
	.st21{fill:none;stroke:#85888D;stroke-width:2;}
	.st22{fill:none;stroke:#000000;stroke-width:2;}
	.st23{fill:none;stroke:#998EC3;stroke-width:2;stroke-dasharray:3.087,3.087;}
</style>
<sodipodi:namedview  bordercolor="#666666" borderopacity="1" gridtolerance="10" guidetolerance="10" id="namedview203" inkscape:current-layer="Layer_1" inkscape:cx="159.99821" inkscape:cy="193.0798" inkscape:pageopacity="0" inkscape:pageshadow="2" inkscape:window-height="1133" inkscape:window-maximized="1" inkscape:window-width="1920" inkscape:window-x="1920" inkscape:window-y="38" inkscape:zoom="1.8856181" objecttolerance="10" pagecolor="#ffffff" showgrid="false">
	<inkscape:grid  id="grid1034" type="xygrid"></inkscape:grid>
</sodipodi:namedview>
<g id="g992">
	<g id="g12">
		<g>
			<defs>
				<rect id="SVGID_1_" x="31.2" y="108.8" width="104" height="131.2"/>
			</defs>
			<clipPath id="SVGID_2_">
				<use xlink:href="#SVGID_1_"  style="overflow:visible;"/>
			</clipPath>
			<rect id="rect8" x="33" y="111" class="st0" width="100" height="127"/>
		</g>
		<g>
			<defs>
				<rect id="SVGID_3_" x="31.2" y="108.8" width="104" height="131.2"/>
			</defs>
			<clipPath id="SVGID_4_">
				<use xlink:href="#SVGID_3_"  style="overflow:visible;"/>
			</clipPath>
			<rect id="rect10" x="33" y="111" class="st1" width="100" height="127"/>
		</g>
	</g>
	<g id="g22">
		<g>
			<defs>
				<rect id="SVGID_5_" x="45.3" y="128.7" width="75.8" height="4"/>
			</defs>
			<clipPath id="SVGID_6_">
				<use xlink:href="#SVGID_5_"  style="overflow:visible;"/>
			</clipPath>
			<line id="line20" class="st2" x1="46" y1="131" x2="120" y2="131"/>
		</g>
	</g>
	<g id="g32">
		<g>
			<defs>
				<rect id="SVGID_7_" x="45.3" y="134.5" width="75.8" height="4"/>
			</defs>
			<clipPath id="SVGID_8_">
				<use xlink:href="#SVGID_7_"  style="overflow:visible;"/>
			</clipPath>
			<line id="line30" class="st3" x1="46" y1="137" x2="120" y2="137"/>
		</g>
	</g>
	<g id="g42">
		<g>
			<defs>
				<rect id="SVGID_9_" x="45.3" y="140.3" width="75.8" height="4"/>
			</defs>
			<clipPath id="SVGID_10_">
				<use xlink:href="#SVGID_9_"  style="overflow:visible;"/>
			</clipPath>
			<line id="line40" class="st4" x1="46" y1="142" x2="120" y2="142"/>
		</g>
	</g>
	<g id="g52">
		<g>
			<defs>
				<rect id="SVGID_11_" x="45.3" y="152" width="75.8" height="4"/>
			</defs>
			<clipPath id="SVGID_12_">
				<use xlink:href="#SVGID_11_"  style="overflow:visible;"/>
			</clipPath>
			<line id="line50" class="st5" x1="46" y1="154" x2="120" y2="154"/>
		</g>
	</g>
	<g id="g64" transform="translate(2.802002,1.3819885)">
		<g>
			<defs>
				<rect id="SVGID_13_" x="253.2" y="21.4" width="104" height="131.2"/>
			</defs>
			<clipPath id="SVGID_14_">
				<use xlink:href="#SVGID_13_"  style="overflow:visible;"/>
			</clipPath>
			<rect id="rect60" x="255" y="23" class="st6" width="100" height="128"/>
		</g>
		<g>
			<defs>
				<rect id="SVGID_15_" x="253.2" y="21.4" width="104" height="131.2"/>
			</defs>
			<clipPath id="SVGID_16_">
				<use xlink:href="#SVGID_15_"  style="overflow:visible;"/>
			</clipPath>
			<rect id="rect62" x="255" y="23" class="st7" width="100" height="128"/>
		</g>
	</g>
	<g id="g74" transform="translate(2.802002,1.3819885)">
		<g>
			<defs>
				<rect id="SVGID_17_" x="267.3" y="41.2" width="75.8" height="4"/>
			</defs>
			<clipPath id="SVGID_18_">
				<use xlink:href="#SVGID_17_"  style="overflow:visible;"/>
			</clipPath>
			<line id="line72" class="st8" x1="268" y1="43" x2="342" y2="43"/>
		</g>
	</g>
	<g id="g84" transform="translate(2.802002,1.3819885)">
		<g>
			<defs>
				<rect id="SVGID_19_" x="267.3" y="47.1" width="75.8" height="4"/>
			</defs>
			<clipPath id="SVGID_20_">
				<use xlink:href="#SVGID_19_"  style="overflow:visible;"/>
			</clipPath>
			<g id="line82" class="st9">
				<g>
					<line class="st10" x1="268" y1="49" x2="270.5" y2="49"/>
					<line class="st11" x1="275.8" y1="49" x2="336.8" y2="49"/>
					<line class="st10" x1="339.5" y1="49" x2="342" y2="49"/>
				</g>
			</g>
		</g>
	</g>
	<g id="g94" transform="translate(2.802002,1.3819885)">
		<g>
			<defs>
				<rect id="SVGID_21_" x="267.3" y="52.9" width="75.8" height="4"/>
			</defs>
			<clipPath id="SVGID_22_">
				<use xlink:href="#SVGID_21_"  style="overflow:visible;"/>
			</clipPath>
			<line id="line92" class="st12" x1="268" y1="55" x2="342" y2="55"/>
		</g>
	</g>
	<g id="g104" transform="translate(2.802002,1.3819885)">
		<g>
			<defs>
				<rect id="SVGID_23_" x="267.3" y="64.6" width="75.8" height="4"/>
			</defs>
			<clipPath id="SVGID_24_">
				<use xlink:href="#SVGID_23_"  style="overflow:visible;"/>
			</clipPath>
			<line id="line102" class="st13" x1="268" y1="67" x2="342" y2="67"/>
		</g>
	</g>
	<g id="g114">
		<g>
			<defs>
				<rect id="SVGID_25_" x="155.8" y="57.3" width="75.8" height="4"/>
			</defs>
			<clipPath id="SVGID_26_">
				<use xlink:href="#SVGID_25_"  style="overflow:visible;"/>
			</clipPath>
			<g id="line112" class="st14">
				<g>
					<line class="st10" x1="157" y1="59" x2="159.5" y2="59"/>
					<line class="st11" x1="164.8" y1="59" x2="225.8" y2="59"/>
					<line class="st10" x1="228.5" y1="59" x2="231" y2="59"/>
				</g>
			</g>
		</g>
	</g>
	<polygon id="polygon116" class="st15" points="203.4,125.1 207.7,139.1 237.4,98.6 190.1,81.6 194.4,95.7 153.5,108.2 162.5,137.6 
			"/>
	<polygon id="polygon170" class="st15" points="194.4,238.7 190.1,252.8 237.4,235.8 207.7,195.3 203.4,209.3 162.5,196.8 
		153.5,226.2 	"/>
	<g id="g190">
		<g>
			<defs>
				<rect id="SVGID_27_" x="156.6" y="265.7" width="75.8" height="4"/>
			</defs>
			<clipPath id="SVGID_28_">
				<use xlink:href="#SVGID_27_"  style="overflow:visible;"/>
			</clipPath>
			<g id="line188" class="st16">
				<g>
					<line class="st17" x1="158" y1="268" x2="159.5" y2="268"/>
					<line class="st18" x1="162.5" y1="268" x2="228" y2="268"/>
					<line class="st17" x1="229.5" y1="268" x2="231" y2="268"/>
				</g>
			</g>
		</g>
	</g>
	<g id="g200">
		<g>
			<defs>
				<rect id="SVGID_29_" x="156.6" y="271.7" width="75.8" height="4"/>
			</defs>
			<clipPath id="SVGID_30_">
				<use xlink:href="#SVGID_29_"  style="overflow:visible;"/>
			</clipPath>
			<g id="line198" class="st19">
				<g>
					<line class="st17" x1="158" y1="274" x2="159.5" y2="274"/>
					<line class="st18" x1="162.5" y1="274" x2="228" y2="274"/>
					<line class="st17" x1="229.5" y1="274" x2="231" y2="274"/>
				</g>
			</g>
		</g>
	</g>
	<rect id="rect2-3" x="258" y="203" class="st20" width="100" height="127"/>
	<rect id="rect4-6" x="258" y="203" class="st21" width="100" height="127"/>
	<line id="line6-7" class="st22" x1="271" y1="223" x2="345" y2="223"/>
	<line id="line8-5" class="st22" x1="271" y1="229" x2="345" y2="229"/>
	<line id="line10-3" class="st22" x1="271" y1="234" x2="345" y2="234"/>
	<line id="line12-5" class="st22" x1="271" y1="246" x2="345" y2="246"/>
	<g id="line54-6">
		<g>
			<line class="st17" x1="271" y1="253" x2="272.5" y2="253"/>
			<line class="st23" x1="275.6" y1="253" x2="342" y2="253"/>
			<line class="st17" x1="343.5" y1="253" x2="345" y2="253"/>
		</g>
	</g>
	<g id="line56-2">
		<g>
			<line class="st17" x1="271" y1="259" x2="272.5" y2="259"/>
			<line class="st23" x1="275.6" y1="259" x2="342" y2="259"/>
			<line class="st17" x1="343.5" y1="259" x2="345" y2="259"/>
		</g>
	</g>
</g>
</svg>
