<?xml version="1.0" encoding="utf-8"?>
<!-- Generator: Adobe Illustrator 15.0.0, SVG Export Plug-In . SVG Version: 6.00 Build 0)  -->
<!DOCTYPE svg PUBLIC "-//W3C//DTD SVG 1.1//EN" "http://www.w3.org/Graphics/SVG/1.1/DTD/svg11.dtd">
<svg version="1.1" id="Layer_1" xmlns="http://www.w3.org/2000/svg" xmlns:xlink="http://www.w3.org/1999/xlink" x="0px" y="0px"
	 width="792px" height="300px" viewBox="0 0 792 300" enable-background="new 0 0 792 300" xml:space="preserve">
<g id="work">
	<path fill="#ACCC9B" stroke="#010101" stroke-width="2" stroke-miterlimit="10" d="M329.06,73.301
		c0,6.85-4.78,12.402-10.676,12.402H177.814c-5.896,0-10.675-5.553-10.675-12.402V24.723c0-6.849,4.78-12.402,10.675-12.402h140.569
		c5.896,0,10.676,5.553,10.676,12.402V73.301z"/>
	<path fill="#FCF6B7" stroke="#010101" stroke-width="2" stroke-miterlimit="10" d="M511.106,73.301
		c0,6.85-4.781,12.402-10.677,12.402H359.86c-5.893,0-10.673-5.553-10.673-12.402V24.723c0-6.849,4.78-12.402,10.673-12.402h140.57
		c5.896,0,10.677,5.553,10.677,12.402V73.301L511.106,73.301z"/>
	<path fill="#9DCDC9" stroke="#010101" stroke-width="2" stroke-miterlimit="10" d="M692.924,73.301
		c0,6.85-4.78,12.402-10.677,12.402H541.679c-5.896,0-10.678-5.553-10.678-12.402V24.723c0-6.849,4.782-12.402,10.678-12.402
		h140.568c5.896,0,10.677,5.553,10.677,12.402V73.301z"/>
	
		<rect x="175.83" y="85.704" fill="#E7E7E7" stroke="#010101" stroke-width="2" stroke-miterlimit="10" width="144.539" height="198.442"/>
	
		<rect x="357.762" y="85.704" fill="#E7E7E7" stroke="#010101" stroke-width="2" stroke-miterlimit="10" width="144.542" height="198.442"/>
	
		<rect x="539.696" y="85.704" fill="#E7E7E7" stroke="#010101" stroke-width="2" stroke-miterlimit="10" width="144.535" height="198.442"/>
	<text transform="matrix(0.8851 0 0 1 209.2515 41.2612)" fill="#010101" font-family="'MyriadPro-Regular'" font-size="24.8052">Working</text>
	<text transform="matrix(0.8851 0 0 1 205.7925 71.0278)" fill="#010101" font-family="'MyriadPro-Regular'" font-size="24.8052">Directory</text>
	<text transform="matrix(0.8851 0 0 1 406.6904 41.2612)" fill="#010101" font-family="'MyriadPro-Regular'" font-size="24.8052">Stage</text>
	<text transform="matrix(0.8851 0 0 1 400.9355 71.0278)" fill="#010101" font-family="'MyriadPro-Regular'" font-size="24.8052">(Index)</text>
	<g>
		<line fill="none" x1="248.1" y1="85.704" x2="248.1" y2="284.146"/>
		<g>
			<line fill="none" stroke="#6E6F72" stroke-width="4" stroke-miterlimit="10" x1="248.1" y1="85.704" x2="248.1" y2="91.905"/>
			
				<line fill="none" stroke="#6E6F72" stroke-width="4" stroke-miterlimit="10" stroke-dasharray="12,12" x1="248.1" y1="104.307" x2="248.1" y2="271.742"/>
			<line fill="none" stroke="#6E6F72" stroke-width="4" stroke-miterlimit="10" x1="248.1" y1="277.941" x2="248.1" y2="284.146"/>
		</g>
	</g>
	<g>
		<g>
			
				<line fill="none" stroke="#6E6F72" stroke-width="4" stroke-miterlimit="10" x1="611.964" y1="85.704" x2="611.964" y2="91.905"/>
			
				<line fill="none" stroke="#6E6F72" stroke-width="4" stroke-miterlimit="10" stroke-dasharray="12,12" x1="611.964" y1="104.307" x2="611.964" y2="271.742"/>
			
				<line fill="none" stroke="#6E6F72" stroke-width="4" stroke-miterlimit="10" x1="611.964" y1="277.941" x2="611.964" y2="284.146"/>
		</g>
	</g>
	<g>
		<g>
			
				<line fill="none" stroke="#6E6F72" stroke-width="4" stroke-miterlimit="10" x1="430.031" y1="85.704" x2="430.031" y2="91.905"/>
			
				<line fill="none" stroke="#6E6F72" stroke-width="4" stroke-miterlimit="10" stroke-dasharray="12,12" x1="430.031" y1="104.307" x2="430.031" y2="271.742"/>
			
				<line fill="none" stroke="#6E6F72" stroke-width="4" stroke-miterlimit="10" x1="430.031" y1="277.941" x2="430.031" y2="284.146"/>
		</g>
	</g>
	<g>
		<rect x="2.788" y="12.321" fill="#E7E7E7" width="144.54" height="271.824"/>
		<g>
			<polyline fill="none" stroke="#010101" stroke-width="2" stroke-miterlimit="10" points="2.788,18.321 2.788,12.321 
				8.788,12.321 			"/>
			
				<line fill="none" stroke="#010101" stroke-width="2" stroke-miterlimit="10" stroke-dasharray="12.0491,12.0491" x1="20.836" y1="12.321" x2="135.303" y2="12.321"/>
			<polyline fill="none" stroke="#010101" stroke-width="2" stroke-miterlimit="10" points="141.327,12.321 147.327,12.321 
				147.327,18.321 			"/>
			
				<line fill="none" stroke="#010101" stroke-width="2" stroke-miterlimit="10" stroke-dasharray="12.3726,12.3726" x1="147.327" y1="30.694" x2="147.327" y2="271.959"/>
			<polyline fill="none" stroke="#010101" stroke-width="2" stroke-miterlimit="10" points="147.327,278.146 147.327,284.146 
				141.327,284.146 			"/>
			
				<line fill="none" stroke="#010101" stroke-width="2" stroke-miterlimit="10" stroke-dasharray="12.0491,12.0491" x1="129.278" y1="284.146" x2="14.812" y2="284.146"/>
			<polyline fill="none" stroke="#010101" stroke-width="2" stroke-miterlimit="10" points="8.788,284.146 2.788,284.146 
				2.788,278.146 			"/>
			
				<line fill="none" stroke="#010101" stroke-width="2" stroke-miterlimit="10" stroke-dasharray="12.3726,12.3726" x1="2.788" y1="265.772" x2="2.788" y2="24.508"/>
		</g>
	</g>
	<text transform="matrix(0.9436 0 0 1 589.667 37.6606)" enable-background="new    "><tspan x="0" y="0" fill="#020202" font-family="'MyriadPro-Regular'" font-size="24.7505">Local</tspan><tspan x="-28.191" y="29.701" fill="#020202" font-family="'MyriadPro-Regular'" font-size="24.7505">Repository</tspan></text>
</g>
<g>
	<g>
		
			<line fill="none" stroke="#CC9998" stroke-width="2" stroke-miterlimit="10" x1="438.802" y1="160.495" x2="598.571" y2="160.495"/>
		<g>
			<polygon fill="#CC9998" points="596.707,143.996 596.707,176.904 610.597,160.452 			"/>
		</g>
	</g>
</g>
<rect x="430.895" y="145.039" fill="#CC9998" stroke="#CC9998" stroke-width="2" stroke-miterlimit="10" width="165.025" height="30.806"/>
<text transform="matrix(0.8443 0 0 1 470.1758 165.9121)" fill="#010101" font-family="'LucidaConsole'" font-size="19.5021">git commit</text>
<g>
	<polygon fill="#CC9998" points="414.365,192.051 414.365,224.96 428.253,208.506 	"/>
</g>
<rect x="248.551" y="193.094" fill="#CC9998" stroke="#CC9998" stroke-width="2" stroke-miterlimit="10" width="165.026" height="30.807"/>
<text transform="matrix(0.8443 0 0 1 263.1313 213.9678)" fill="#010101" font-family="'LucidaConsole'" font-size="19.5021">git add &lt;file&gt;</text>
<g>
	<polygon fill="#CC9998" points="235.324,112.13 235.324,145.039 249.211,128.587 	"/>
</g>
<rect x="69.51" y="113.171" fill="#CC9998" stroke="#CC9998" stroke-width="2" stroke-miterlimit="10" width="165.024" height="30.807"/>
<text transform="matrix(0.8443 0 0 1 84.0894 134.0454)" fill="#010101" font-family="'LucidaConsole'" font-size="19.5021">git add &lt;file&gt;</text>
<text transform="matrix(0.9525 0 0 1 22.7427 37.6606)"><tspan x="0" y="0" font-family="'MyriadPro-Regular'" font-size="20.1107">“Untracked” </tspan><tspan x="34.087" y="24.133" font-family="'MyriadPro-Regular'" font-size="20.1107">Files</tspan></text>
</svg>
