<?xml version="1.0" encoding="UTF-8"?>
<!DOCTYPE svg PUBLIC "-//W3C//DTD SVG 1.1//EN" "http://www.w3.org/Graphics/SVG/1.1/DTD/svg11.dtd">
<svg version="1.2" width="215.9mm" height="279.4mm" viewBox="0 0 21590 27940" preserveAspectRatio="xMidYMid" fill-rule="evenodd" clip-path="url(#presentation_clip_path)" stroke-width="28.222" stroke-linejoin="round" xmlns="http://www.w3.org/2000/svg" xmlns:ooo="http://xml.openoffice.org/svg/export" xmlns:xlink="http://www.w3.org/1999/xlink" xml:space="preserve">
 <defs class="ClipPathGroup">
  <clipPath id="presentation_clip_path" clipPathUnits="userSpaceOnUse">
   <rect x="0" y="0" width="21590" height="27940"/>
  </clipPath>
 </defs>
 <defs class="TextShapeIndex">
  <g ooo:slide="id1" ooo:id-list="id3 id4 id5 id6 id7 id8 id9 id10 id11 id12 id13 id14 id15 id16 id17 id18 id19 id20 id21"/>
 </defs>
 <defs class="EmbeddedBulletChars">
  <g id="bullet-char-template(57356)" transform="scale(0.00048828125,-0.00048828125)">
   <path d="M 580,1141 L 1163,571 580,0 -4,571 580,1141 Z"/>
  </g>
  <g id="bullet-char-template(57354)" transform="scale(0.00048828125,-0.00048828125)">
   <path d="M 8,1128 L 1137,1128 1137,0 8,0 8,1128 Z"/>
  </g>
  <g id="bullet-char-template(10146)" transform="scale(0.00048828125,-0.00048828125)">
   <path d="M 174,0 L 602,739 174,1481 1456,739 174,0 Z M 1358,739 L 309,1346 659,739 1358,739 Z"/>
  </g>
  <g id="bullet-char-template(10132)" transform="scale(0.00048828125,-0.00048828125)">
   <path d="M 2015,739 L 1276,0 717,0 1260,543 174,543 174,936 1260,936 717,1481 1274,1481 2015,739 Z"/>
  </g>
  <g id="bullet-char-template(10007)" transform="scale(0.00048828125,-0.00048828125)">
   <path d="M 0,-2 C -7,14 -16,27 -25,37 L 356,567 C 262,823 215,952 215,954 215,979 228,992 255,992 264,992 276,990 289,987 310,991 331,999 354,1012 L 381,999 492,748 772,1049 836,1024 860,1049 C 881,1039 901,1025 922,1006 886,937 835,863 770,784 769,783 710,716 594,584 L 774,223 C 774,196 753,168 711,139 L 727,119 C 717,90 699,76 672,76 641,76 570,178 457,381 L 164,-76 C 142,-110 111,-127 72,-127 30,-127 9,-110 8,-76 1,-67 -2,-52 -2,-32 -2,-23 -1,-13 0,-2 Z"/>
  </g>
  <g id="bullet-char-template(10004)" transform="scale(0.00048828125,-0.00048828125)">
   <path d="M 285,-33 C 182,-33 111,30 74,156 52,228 41,333 41,471 41,549 55,616 82,672 116,743 169,778 240,778 293,778 328,747 346,684 L 369,508 C 377,444 397,411 428,410 L 1163,1116 C 1174,1127 1196,1133 1229,1133 1271,1133 1292,1118 1292,1087 L 1292,965 C 1292,929 1282,901 1262,881 L 442,47 C 390,-6 338,-33 285,-33 Z"/>
  </g>
  <g id="bullet-char-template(9679)" transform="scale(0.00048828125,-0.00048828125)">
   <path d="M 813,0 C 632,0 489,54 383,161 276,268 223,411 223,592 223,773 276,916 383,1023 489,1130 632,1184 813,1184 992,1184 1136,1130 1245,1023 1353,916 1407,772 1407,592 1407,412 1353,268 1245,161 1136,54 992,0 813,0 Z"/>
  </g>
  <g id="bullet-char-template(8226)" transform="scale(0.00048828125,-0.00048828125)">
   <path d="M 346,457 C 273,457 209,483 155,535 101,586 74,649 74,723 74,796 101,859 155,911 209,963 273,989 346,989 419,989 480,963 531,910 582,859 608,796 608,723 608,648 583,586 532,535 482,483 420,457 346,457 Z"/>
  </g>
  <g id="bullet-char-template(8211)" transform="scale(0.00048828125,-0.00048828125)">
   <path d="M -4,459 L 1135,459 1135,606 -4,606 -4,459 Z"/>
  </g>
 </defs>
 <defs class="TextEmbeddedBitmaps"/>
 <g>
  <g id="id2" class="Master_Slide">
   <g id="bg-id2" class="Background"/>
   <g id="bo-id2" class="BackgroundObjects"/>
  </g>
 </g>
 <g class="SlideGroup">
  <g>
   <g id="id1" class="Slide" clip-path="url(#presentation_clip_path)">
    <g class="Page">
     <g class="com.sun.star.drawing.TextShape">
      <g id="id3">
       <text class="TextShape"><tspan class="TextParagraph" font-family="Arial, sans-serif" font-size="388px" font-weight="400"><tspan class="TextPosition" x="3700" y="1377"><tspan fill="rgb(0,0,0)" stroke="none">Working Files</tspan></tspan></tspan><tspan class="TextParagraph" font-family="Arial, sans-serif" font-size="388px" font-weight="400"><tspan class="TextPosition" x="2950" y="1809"><tspan fill="rgb(0,0,0)" stroke="none">(what we actually see)</tspan></tspan></tspan></text>
      </g>
     </g>
     <g class="com.sun.star.drawing.TextShape">
      <g id="id4">
       <text class="TextShape"><tspan class="TextParagraph" font-family="Arial, sans-serif" font-size="388px" font-weight="400"><tspan class="TextPosition" x="8348" y="1377"><tspan fill="rgb(0,0,0)" stroke="none">Staging Area</tspan></tspan></tspan><tspan class="TextParagraph" font-family="Arial, sans-serif" font-size="388px" font-weight="400"><tspan class="TextPosition" x="7950" y="1809"><tspan fill="rgb(0,0,0)" stroke="none">(ready to commit)</tspan></tspan></tspan></text>
      </g>
     </g>
     <g class="com.sun.star.drawing.TextShape">
      <g id="id5">
       <text class="TextShape"><tspan class="TextParagraph" font-family="Arial, sans-serif" font-size="388px" font-weight="400"><tspan class="TextPosition" x="13180" y="1377"><tspan fill="rgb(0,0,0)" stroke="none">Repository</tspan></tspan></tspan><tspan class="TextParagraph" font-family="Arial, sans-serif" font-size="388px" font-weight="400"><tspan class="TextPosition" x="12350" y="1809"><tspan fill="rgb(0,0,0)" stroke="none">(permanent storage)</tspan></tspan></tspan></text>
      </g>
     </g>
     <g class="com.sun.star.drawing.CustomShape">
      <g id="id6">
       <path fill="none" stroke="rgb(0,0,0)" stroke-width="50" d="M 4171,2250 L 5571,2250 5571,3825 5396,4050 4171,4050 4171,2250 Z"/>
       <path fill="none" stroke="rgb(0,0,0)" stroke-width="50" d="M 5396,4050 L 5442,3825 C 5486,3858 5484,3839 5571,3825 L 5396,4050 Z"/>
      </g>
     </g>
     <g class="com.sun.star.drawing.CustomShape">
      <g id="id7">
       <path fill="none" stroke="rgb(0,0,0)" stroke-width="50" d="M 4171,4551 L 5571,4551 5571,6126 5396,6351 4171,6351 4171,4551 Z"/>
       <path fill="none" stroke="rgb(0,0,0)" stroke-width="50" d="M 5396,6351 L 5442,6126 C 5486,6159 5484,6140 5571,6126 L 5396,6351 Z"/>
      </g>
     </g>
     <g class="com.sun.star.drawing.TextShape">
      <g id="id8">
       <text class="TextShape"><tspan class="TextParagraph" font-family="Arial, sans-serif" font-size="388px" font-weight="400"><tspan class="TextPosition" x="1050" y="3285"><tspan fill="rgb(0,0,0)" stroke="none">intro.txt</tspan></tspan></tspan></text>
      </g>
     </g>
     <g class="com.sun.star.drawing.TextShape">
      <g id="id9">
       <text class="TextShape"><tspan class="TextParagraph" font-family="Arial, sans-serif" font-size="388px" font-weight="400"><tspan class="TextPosition" x="1050" y="5586"><tspan fill="rgb(0,0,0)" stroke="none">methods.txt</tspan></tspan></tspan></text>
      </g>
     </g>
     <g class="com.sun.star.drawing.CustomShape">
      <g id="id10">
       <path fill="none" stroke="rgb(0,0,0)" stroke-width="50" d="M 4171,6851 L 5571,6851 5571,8426 5396,8651 4171,8651 4171,6851 Z"/>
       <path fill="none" stroke="rgb(0,0,0)" stroke-width="50" d="M 5396,8651 L 5442,8426 C 5486,8459 5484,8440 5571,8426 L 5396,8651 Z"/>
      </g>
     </g>
     <g class="com.sun.star.drawing.TextShape">
      <g id="id11">
       <text class="TextShape"><tspan class="TextParagraph" font-family="Arial, sans-serif" font-size="388px" font-weight="400"><tspan class="TextPosition" x="1050" y="7886"><tspan fill="rgb(0,0,0)" stroke="none">results.txt</tspan></tspan></tspan></text>
      </g>
     </g>
     <g class="com.sun.star.drawing.CustomShape">
      <g id="id12">
       <path fill="none" stroke="rgb(0,0,0)" stroke-width="50" d="M 4171,9151 L 5571,9151 5571,10726 5396,10951 4171,10951 4171,9151 Z"/>
       <path fill="none" stroke="rgb(0,0,0)" stroke-width="50" d="M 5396,10951 L 5442,10726 C 5486,10759 5484,10740 5571,10726 L 5396,10951 Z"/>
      </g>
     </g>
     <g class="com.sun.star.drawing.TextShape">
      <g id="id13">
       <text class="TextShape"><tspan class="TextParagraph" font-family="Arial, sans-serif" font-size="388px" font-weight="400"><tspan class="TextPosition" x="1050" y="10186"><tspan fill="rgb(0,0,0)" stroke="none">conclusion.txt</tspan></tspan></tspan></text>
      </g>
     </g>
     <g class="com.sun.star.drawing.CustomShape">
      <g id="id14">
       <path fill="none" stroke="rgb(0,0,0)" stroke-width="50" d="M 8871,4551 L 10271,4551 10271,6126 10096,6351 8871,6351 8871,4551 Z"/>
       <path fill="none" stroke="rgb(0,0,0)" stroke-width="50" d="M 10096,6351 L 10142,6126 C 10186,6159 10184,6140 10271,6126 L 10096,6351 Z"/>
      </g>
     </g>
     <g class="com.sun.star.drawing.CustomShape">
      <g id="id15">
       <path fill="none" stroke="rgb(0,0,0)" stroke-width="50" d="M 8871,6851 L 10271,6851 10271,8426 10096,8651 8871,8651 8871,6851 Z"/>
       <path fill="none" stroke="rgb(0,0,0)" stroke-width="50" d="M 10096,8651 L 10142,8426 C 10186,8459 10184,8440 10271,8426 L 10096,8651 Z"/>
      </g>
     </g>
     <g class="com.sun.star.drawing.CustomShape">
      <g id="id16">
       <path fill="none" stroke="rgb(0,0,0)" stroke-width="50" d="M 13571,4551 L 14971,4551 14971,6126 14796,6351 13571,6351 13571,4551 Z"/>
       <path fill="none" stroke="rgb(0,0,0)" stroke-width="50" d="M 14796,6351 L 14842,6126 C 14886,6159 14884,6140 14971,6126 L 14796,6351 Z"/>
      </g>
     </g>
     <g class="com.sun.star.drawing.CustomShape">
      <g id="id17">
       <path fill="none" stroke="rgb(0,0,0)" stroke-width="50" d="M 13571,6851 L 14971,6851 14971,8426 14796,8651 13571,8651 13571,6851 Z"/>
       <path fill="none" stroke="rgb(0,0,0)" stroke-width="50" d="M 14796,8651 L 14842,8426 C 14886,8459 14884,8440 14971,8426 L 14796,8651 Z"/>
      </g>
     </g>
     <g class="com.sun.star.drawing.CustomShape">
      <g id="id18">
       <path fill="none" stroke="rgb(0,0,0)" stroke-width="50" d="M 6300,6375 L 7800,6375 7800,6100 8301,6650 7800,7201 7800,6925 6300,6925 6300,6375 Z"/>
      </g>
     </g>
     <g class="com.sun.star.drawing.TextShape">
      <g id="id19">
       <text class="TextShape"><tspan class="TextParagraph" font-family="Arial, sans-serif" font-size="388px" font-weight="400"><tspan class="TextPosition" x="6717" y="5787"><tspan fill="rgb(0,0,0)" stroke="none">git add</tspan></tspan></tspan></text>
      </g>
     </g>
     <g class="com.sun.star.drawing.CustomShape">
      <g id="id20">
       <path fill="none" stroke="rgb(0,0,0)" stroke-width="50" d="M 11019,6376 L 12519,6376 12519,6101 13020,6651 12519,7202 12519,6926 11019,6926 11019,6376 Z"/>
      </g>
     </g>
     <g class="com.sun.star.drawing.TextShape">
      <g id="id21">
       <text class="TextShape"><tspan class="TextParagraph" font-family="Arial, sans-serif" font-size="388px" font-weight="400"><tspan class="TextPosition" x="11133" y="5788"><tspan fill="rgb(0,0,0)" stroke="none">git commit</tspan></tspan></tspan></text>
      </g>
     </g>
    </g>
   </g>
  </g>
 </g>
</svg>