<?xml version="1.0" encoding="UTF-8"?>
<!DOCTYPE svg PUBLIC "-//W3C//DTD SVG 1.1//EN" "http://www.w3.org/Graphics/SVG/1.1/DTD/svg11.dtd">
<svg version="1.2" width="215.9mm" height="279.4mm" viewBox="0 0 21590 27940" preserveAspectRatio="xMidYMid" fill-rule="evenodd" clip-path="url(#presentation_clip_path)" stroke-width="28.222" stroke-linejoin="round" xmlns="http://www.w3.org/2000/svg" xmlns:ooo="http://xml.openoffice.org/svg/export" xmlns:xlink="http://www.w3.org/1999/xlink" xml:space="preserve">
 <defs class="ClipPathGroup">
  <clipPath id="presentation_clip_path" clipPathUnits="userSpaceOnUse">
   <rect x="0" y="0" width="21590" height="27940"/>
  </clipPath>
 </defs>
 <defs class="TextShapeIndex">
  <g ooo:slide="id1" ooo:id-list="id3 id4 id5 id6 id7 id8 id9 id10 id11 id12 id13"/>
 </defs>
 <defs class="EmbeddedBulletChars">
  <g id="bullet-char-template(57356)" transform="scale(0.00048828125,-0.00048828125)">
   <path d="M 580,1141 L 1163,571 580,0 -4,571 580,1141 Z"/>
  </g>
  <g id="bullet-char-template(57354)" transform="scale(0.00048828125,-0.00048828125)">
   <path d="M 8,1128 L 1137,1128 1137,0 8,0 8,1128 Z"/>
  </g>
  <g id="bullet-char-template(10146)" transform="scale(0.00048828125,-0.00048828125)">
   <path d="M 174,0 L 602,739 174,1481 1456,739 174,0 Z M 1358,739 L 309,1346 659,739 1358,739 Z"/>
  </g>
  <g id="bullet-char-template(10132)" transform="scale(0.00048828125,-0.00048828125)">
   <path d="M 2015,739 L 1276,0 717,0 1260,543 174,543 174,936 1260,936 717,1481 1274,1481 2015,739 Z"/>
  </g>
  <g id="bullet-char-template(10007)" transform="scale(0.00048828125,-0.00048828125)">
   <path d="M 0,-2 C -7,14 -16,27 -25,37 L 356,567 C 262,823 215,952 215,954 215,979 228,992 255,992 264,992 276,990 289,987 310,991 331,999 354,1012 L 381,999 492,748 772,1049 836,1024 860,1049 C 881,1039 901,1025 922,1006 886,937 835,863 770,784 769,783 710,716 594,584 L 774,223 C 774,196 753,168 711,139 L 727,119 C 717,90 699,76 672,76 641,76 570,178 457,381 L 164,-76 C 142,-110 111,-127 72,-127 30,-127 9,-110 8,-76 1,-67 -2,-52 -2,-32 -2,-23 -1,-13 0,-2 Z"/>
  </g>
  <g id="bullet-char-template(10004)" transform="scale(0.00048828125,-0.00048828125)">
   <path d="M 285,-33 C 182,-33 111,30 74,156 52,228 41,333 41,471 41,549 55,616 82,672 116,743 169,778 240,778 293,778 328,747 346,684 L 369,508 C 377,444 397,411 428,410 L 1163,1116 C 1174,1127 1196,1133 1229,1133 1271,1133 1292,1118 1292,1087 L 1292,965 C 1292,929 1282,901 1262,881 L 442,47 C 390,-6 338,-33 285,-33 Z"/>
  </g>
  <g id="bullet-char-template(9679)" transform="scale(0.00048828125,-0.00048828125)">
   <path d="M 813,0 C 632,0 489,54 383,161 276,268 223,411 223,592 223,773 276,916 383,1023 489,1130 632,1184 813,1184 992,1184 1136,1130 1245,1023 1353,916 1407,772 1407,592 1407,412 1353,268 1245,161 1136,54 992,0 813,0 Z"/>
  </g>
  <g id="bullet-char-template(8226)" transform="scale(0.00048828125,-0.00048828125)">
   <path d="M 346,457 C 273,457 209,483 155,535 101,586 74,649 74,723 74,796 101,859 155,911 209,963 273,989 346,989 419,989 480,963 531,910 582,859 608,796 608,723 608,648 583,586 532,535 482,483 420,457 346,457 Z"/>
  </g>
  <g id="bullet-char-template(8211)" transform="scale(0.00048828125,-0.00048828125)">
   <path d="M -4,459 L 1135,459 1135,606 -4,606 -4,459 Z"/>
  </g>
 </defs>
 <defs class="TextEmbeddedBitmaps"/>
 <g>
  <g id="id2" class="Master_Slide">
   <g id="bg-id2" class="Background"/>
   <g id="bo-id2" class="BackgroundObjects"/>
  </g>
 </g>
 <g class="SlideGroup">
  <g>
   <g id="id1" class="Slide" clip-path="url(#presentation_clip_path)">
    <g class="Page">
     <g class="com.sun.star.drawing.CustomShape">
      <g id="id3">
       <path fill="none" stroke="rgb(0,0,0)" stroke-width="50" d="M 2750,4147 L 4150,4147 4150,5722 3975,5947 2750,5947 2750,4147 Z"/>
       <path fill="none" stroke="rgb(0,0,0)" stroke-width="50" d="M 3975,5947 L 4021,5722 C 4065,5755 4063,5736 4150,5722 L 3975,5947 Z"/>
      </g>
     </g>
     <g class="com.sun.star.drawing.TextShape">
      <g id="id4">
       <text class="TextShape"><tspan class="TextParagraph" font-family="Arial, sans-serif" font-size="388px" font-weight="400"><tspan class="TextPosition" x="2759" y="6793"><tspan fill="rgb(0,0,0)" stroke="none">mars.txt</tspan></tspan></tspan></text>
      </g>
     </g>
     <g class="com.sun.star.drawing.LineShape">
      <g id="id5">
       <path fill="none" stroke="rgb(0,0,0)" stroke-width="50" d="M 3000,4597 L 3900,4597"/>
      </g>
     </g>
     <g class="com.sun.star.drawing.LineShape">
      <g id="id6">
       <path fill="none" stroke="rgb(0,0,0)" stroke-width="50" d="M 3000,4897 L 3900,4897"/>
      </g>
     </g>
     <g class="com.sun.star.drawing.LineShape">
      <g id="id7">
       <path fill="none" stroke="rgb(0,0,0)" stroke-width="50" d="M 3000,5197 L 3900,5197"/>
      </g>
     </g>
     <g class="com.sun.star.drawing.CustomShape">
      <g id="id8">
       <path fill="none" stroke="rgb(0,0,0)" stroke-width="50" d="M 1800,2300 C 1700,2300 1600,2400 1600,2500 L 1600,3300 C 1600,3400 1700,3501 1800,3501 L 5100,3501 C 5200,3501 5301,3400 5301,3300 L 5301,2500 C 5301,2400 5200,2300 5100,2300 L 1800,2300 Z"/>
       <text class="TextShape"><tspan class="TextParagraph" font-family="Arial, sans-serif" font-size="388px" font-weight="400"><tspan class="TextPosition" x="1822" y="3035"><tspan fill="rgb(0,0,0)" stroke="none">/home/vlad/planets</tspan></tspan></tspan></text>
      </g>
     </g>
     <g class="com.sun.star.drawing.CustomShape">
      <g id="id9">
       <path fill="none" stroke="rgb(0,0,0)" stroke-width="50" d="M 7150,2300 C 7050,2300 6950,2400 6950,2500 L 6950,3300 C 6950,3400 7050,3501 7150,3501 L 10450,3501 C 10550,3501 10651,3400 10651,3300 L 10651,2500 C 10651,2400 10550,2300 10450,2300 L 7150,2300 Z"/>
       <text class="TextShape"><tspan class="TextParagraph" font-family="Arial, sans-serif" font-size="388px" font-weight="400"><tspan class="TextPosition" x="7064" y="3035"><tspan fill="rgb(0,0,0)" stroke="none">/somewhere/planets</tspan></tspan></tspan></text>
      </g>
     </g>
     <g class="com.sun.star.drawing.LineShape">
      <g id="id10">
       <path fill="none" stroke="rgb(0,0,0)" stroke-width="50" d="M 6100,1300 L 6100,1351"/>
       <path fill="none" stroke="rgb(0,0,0)" stroke-width="50" d="M 6100,1402 L 6100,1453"/>
       <path fill="none" stroke="rgb(0,0,0)" stroke-width="50" d="M 6100,1504 L 6100,1555"/>
       <path fill="none" stroke="rgb(0,0,0)" stroke-width="50" d="M 6100,1606 L 6100,1657"/>
       <path fill="none" stroke="rgb(0,0,0)" stroke-width="50" d="M 6100,1708 L 6100,1759"/>
       <path fill="none" stroke="rgb(0,0,0)" stroke-width="50" d="M 6100,1810 L 6100,1861"/>
       <path fill="none" stroke="rgb(0,0,0)" stroke-width="50" d="M 6100,1912 L 6100,1963"/>
       <path fill="none" stroke="rgb(0,0,0)" stroke-width="50" d="M 6100,2014 L 6100,2065"/>
       <path fill="none" stroke="rgb(0,0,0)" stroke-width="50" d="M 6100,2116 L 6100,2167"/>
       <path fill="none" stroke="rgb(0,0,0)" stroke-width="50" d="M 6100,2218 L 6100,2269"/>
       <path fill="none" stroke="rgb(0,0,0)" stroke-width="50" d="M 6100,2320 L 6100,2371"/>
       <path fill="none" stroke="rgb(0,0,0)" stroke-width="50" d="M 6100,2422 L 6100,2473"/>
       <path fill="none" stroke="rgb(0,0,0)" stroke-width="50" d="M 6100,2524 L 6100,2575"/>
       <path fill="none" stroke="rgb(0,0,0)" stroke-width="50" d="M 6100,2626 L 6100,2677"/>
       <path fill="none" stroke="rgb(0,0,0)" stroke-width="50" d="M 6100,2728 L 6100,2779"/>
       <path fill="none" stroke="rgb(0,0,0)" stroke-width="50" d="M 6100,2830 L 6100,2881"/>
       <path fill="none" stroke="rgb(0,0,0)" stroke-width="50" d="M 6100,2932 L 6100,2983"/>
       <path fill="none" stroke="rgb(0,0,0)" stroke-width="50" d="M 6100,3034 L 6100,3085"/>
       <path fill="none" stroke="rgb(0,0,0)" stroke-width="50" d="M 6100,3136 L 6100,3187"/>
       <path fill="none" stroke="rgb(0,0,0)" stroke-width="50" d="M 6100,3238 L 6100,3289"/>
       <path fill="none" stroke="rgb(0,0,0)" stroke-width="50" d="M 6100,3340 L 6100,3391"/>
       <path fill="none" stroke="rgb(0,0,0)" stroke-width="50" d="M 6100,3442 L 6100,3493"/>
       <path fill="none" stroke="rgb(0,0,0)" stroke-width="50" d="M 6100,3544 L 6100,3595"/>
       <path fill="none" stroke="rgb(0,0,0)" stroke-width="50" d="M 6100,3646 L 6100,3697"/>
       <path fill="none" stroke="rgb(0,0,0)" stroke-width="50" d="M 6100,3748 L 6100,3799"/>
       <path fill="none" stroke="rgb(0,0,0)" stroke-width="50" d="M 6100,3850 L 6100,3901"/>
       <path fill="none" stroke="rgb(0,0,0)" stroke-width="50" d="M 6100,3952 L 6100,4003"/>
       <path fill="none" stroke="rgb(0,0,0)" stroke-width="50" d="M 6100,4054 L 6100,4105"/>
       <path fill="none" stroke="rgb(0,0,0)" stroke-width="50" d="M 6100,4156 L 6100,4207"/>
       <path fill="none" stroke="rgb(0,0,0)" stroke-width="50" d="M 6100,4258 L 6100,4309"/>
       <path fill="none" stroke="rgb(0,0,0)" stroke-width="50" d="M 6100,4360 L 6100,4411"/>
       <path fill="none" stroke="rgb(0,0,0)" stroke-width="50" d="M 6100,4462 L 6100,4513"/>
       <path fill="none" stroke="rgb(0,0,0)" stroke-width="50" d="M 6100,4564 L 6100,4615"/>
       <path fill="none" stroke="rgb(0,0,0)" stroke-width="50" d="M 6100,4666 L 6100,4717"/>
       <path fill="none" stroke="rgb(0,0,0)" stroke-width="50" d="M 6100,4768 L 6100,4819"/>
       <path fill="none" stroke="rgb(0,0,0)" stroke-width="50" d="M 6100,4870 L 6100,4921"/>
       <path fill="none" stroke="rgb(0,0,0)" stroke-width="50" d="M 6100,4972 L 6100,5023"/>
       <path fill="none" stroke="rgb(0,0,0)" stroke-width="50" d="M 6100,5074 L 6100,5125"/>
       <path fill="none" stroke="rgb(0,0,0)" stroke-width="50" d="M 6100,5176 L 6100,5227"/>
       <path fill="none" stroke="rgb(0,0,0)" stroke-width="50" d="M 6100,5278 L 6100,5329"/>
       <path fill="none" stroke="rgb(0,0,0)" stroke-width="50" d="M 6100,5380 L 6100,5431"/>
       <path fill="none" stroke="rgb(0,0,0)" stroke-width="50" d="M 6100,5482 L 6100,5533"/>
       <path fill="none" stroke="rgb(0,0,0)" stroke-width="50" d="M 6100,5584 L 6100,5635"/>
       <path fill="none" stroke="rgb(0,0,0)" stroke-width="50" d="M 6100,5686 L 6100,5737"/>
       <path fill="none" stroke="rgb(0,0,0)" stroke-width="50" d="M 6100,5788 L 6100,5839"/>
       <path fill="none" stroke="rgb(0,0,0)" stroke-width="50" d="M 6100,5890 L 6100,5941"/>
       <path fill="none" stroke="rgb(0,0,0)" stroke-width="50" d="M 6100,5992 L 6100,6043"/>
       <path fill="none" stroke="rgb(0,0,0)" stroke-width="50" d="M 6100,6094 L 6100,6145"/>
       <path fill="none" stroke="rgb(0,0,0)" stroke-width="50" d="M 6100,6196 L 6100,6247"/>
       <path fill="none" stroke="rgb(0,0,0)" stroke-width="50" d="M 6100,6298 L 6100,6349"/>
       <path fill="none" stroke="rgb(0,0,0)" stroke-width="50" d="M 6100,6400 L 6100,6451"/>
       <path fill="none" stroke="rgb(0,0,0)" stroke-width="50" d="M 6100,6502 L 6100,6553"/>
       <path fill="none" stroke="rgb(0,0,0)" stroke-width="50" d="M 6100,6604 L 6100,6655"/>
       <path fill="none" stroke="rgb(0,0,0)" stroke-width="50" d="M 6100,6706 L 6100,6757"/>
       <path fill="none" stroke="rgb(0,0,0)" stroke-width="50" d="M 6100,6808 L 6100,6859"/>
       <path fill="none" stroke="rgb(0,0,0)" stroke-width="50" d="M 6100,6910 L 6100,6961"/>
       <path fill="none" stroke="rgb(0,0,0)" stroke-width="50" d="M 6100,7012 L 6100,7063"/>
       <path fill="none" stroke="rgb(0,0,0)" stroke-width="50" d="M 6100,7114 L 6100,7165"/>
       <path fill="none" stroke="rgb(0,0,0)" stroke-width="50" d="M 6100,7216 L 6100,7267"/>
       <path fill="none" stroke="rgb(0,0,0)" stroke-width="50" d="M 6100,7318 L 6100,7369"/>
       <path fill="none" stroke="rgb(0,0,0)" stroke-width="50" d="M 6100,7420 L 6100,7471"/>
       <path fill="none" stroke="rgb(0,0,0)" stroke-width="50" d="M 6100,7522 L 6100,7573"/>
       <path fill="none" stroke="rgb(0,0,0)" stroke-width="50" d="M 6100,7624 L 6100,7675"/>
       <path fill="none" stroke="rgb(0,0,0)" stroke-width="50" d="M 6100,7726 L 6100,7777"/>
      </g>
     </g>
     <g class="com.sun.star.drawing.LineShape">
      <g id="id11">
       <path fill="none" stroke="rgb(0,0,0)" stroke-width="50" d="M 1100,1800 L 1151,1800"/>
       <path fill="none" stroke="rgb(0,0,0)" stroke-width="50" d="M 1202,1800 L 1253,1800"/>
       <path fill="none" stroke="rgb(0,0,0)" stroke-width="50" d="M 1304,1800 L 1355,1800"/>
       <path fill="none" stroke="rgb(0,0,0)" stroke-width="50" d="M 1406,1800 L 1457,1800"/>
       <path fill="none" stroke="rgb(0,0,0)" stroke-width="50" d="M 1508,1800 L 1559,1800"/>
       <path fill="none" stroke="rgb(0,0,0)" stroke-width="50" d="M 1610,1800 L 1661,1800"/>
       <path fill="none" stroke="rgb(0,0,0)" stroke-width="50" d="M 1712,1800 L 1763,1800"/>
       <path fill="none" stroke="rgb(0,0,0)" stroke-width="50" d="M 1814,1800 L 1865,1800"/>
       <path fill="none" stroke="rgb(0,0,0)" stroke-width="50" d="M 1916,1800 L 1967,1800"/>
       <path fill="none" stroke="rgb(0,0,0)" stroke-width="50" d="M 2018,1800 L 2069,1800"/>
       <path fill="none" stroke="rgb(0,0,0)" stroke-width="50" d="M 2120,1800 L 2171,1800"/>
       <path fill="none" stroke="rgb(0,0,0)" stroke-width="50" d="M 2222,1800 L 2273,1800"/>
       <path fill="none" stroke="rgb(0,0,0)" stroke-width="50" d="M 2324,1800 L 2375,1800"/>
       <path fill="none" stroke="rgb(0,0,0)" stroke-width="50" d="M 2426,1800 L 2477,1800"/>
       <path fill="none" stroke="rgb(0,0,0)" stroke-width="50" d="M 2528,1800 L 2579,1800"/>
       <path fill="none" stroke="rgb(0,0,0)" stroke-width="50" d="M 2630,1800 L 2681,1800"/>
       <path fill="none" stroke="rgb(0,0,0)" stroke-width="50" d="M 2732,1800 L 2783,1800"/>
       <path fill="none" stroke="rgb(0,0,0)" stroke-width="50" d="M 2834,1800 L 2885,1800"/>
       <path fill="none" stroke="rgb(0,0,0)" stroke-width="50" d="M 2936,1800 L 2987,1800"/>
       <path fill="none" stroke="rgb(0,0,0)" stroke-width="50" d="M 3038,1800 L 3089,1800"/>
       <path fill="none" stroke="rgb(0,0,0)" stroke-width="50" d="M 3140,1800 L 3191,1800"/>
       <path fill="none" stroke="rgb(0,0,0)" stroke-width="50" d="M 3242,1800 L 3293,1800"/>
       <path fill="none" stroke="rgb(0,0,0)" stroke-width="50" d="M 3344,1800 L 3395,1800"/>
       <path fill="none" stroke="rgb(0,0,0)" stroke-width="50" d="M 3446,1800 L 3497,1800"/>
       <path fill="none" stroke="rgb(0,0,0)" stroke-width="50" d="M 3548,1800 L 3599,1800"/>
       <path fill="none" stroke="rgb(0,0,0)" stroke-width="50" d="M 3650,1800 L 3701,1800"/>
       <path fill="none" stroke="rgb(0,0,0)" stroke-width="50" d="M 3752,1800 L 3803,1800"/>
       <path fill="none" stroke="rgb(0,0,0)" stroke-width="50" d="M 3854,1800 L 3905,1800"/>
       <path fill="none" stroke="rgb(0,0,0)" stroke-width="50" d="M 3956,1800 L 4007,1800"/>
       <path fill="none" stroke="rgb(0,0,0)" stroke-width="50" d="M 4058,1800 L 4109,1800"/>
       <path fill="none" stroke="rgb(0,0,0)" stroke-width="50" d="M 4160,1800 L 4211,1800"/>
       <path fill="none" stroke="rgb(0,0,0)" stroke-width="50" d="M 4262,1800 L 4313,1800"/>
       <path fill="none" stroke="rgb(0,0,0)" stroke-width="50" d="M 4364,1800 L 4415,1800"/>
       <path fill="none" stroke="rgb(0,0,0)" stroke-width="50" d="M 4466,1800 L 4517,1800"/>
       <path fill="none" stroke="rgb(0,0,0)" stroke-width="50" d="M 4568,1800 L 4619,1800"/>
       <path fill="none" stroke="rgb(0,0,0)" stroke-width="50" d="M 4670,1800 L 4721,1800"/>
       <path fill="none" stroke="rgb(0,0,0)" stroke-width="50" d="M 4772,1800 L 4823,1800"/>
       <path fill="none" stroke="rgb(0,0,0)" stroke-width="50" d="M 4874,1800 L 4925,1800"/>
       <path fill="none" stroke="rgb(0,0,0)" stroke-width="50" d="M 4976,1800 L 5027,1800"/>
       <path fill="none" stroke="rgb(0,0,0)" stroke-width="50" d="M 5078,1800 L 5129,1800"/>
       <path fill="none" stroke="rgb(0,0,0)" stroke-width="50" d="M 5180,1800 L 5231,1800"/>
       <path fill="none" stroke="rgb(0,0,0)" stroke-width="50" d="M 5282,1800 L 5333,1800"/>
       <path fill="none" stroke="rgb(0,0,0)" stroke-width="50" d="M 5384,1800 L 5435,1800"/>
       <path fill="none" stroke="rgb(0,0,0)" stroke-width="50" d="M 5486,1800 L 5537,1800"/>
       <path fill="none" stroke="rgb(0,0,0)" stroke-width="50" d="M 5588,1800 L 5639,1800"/>
       <path fill="none" stroke="rgb(0,0,0)" stroke-width="50" d="M 5690,1800 L 5741,1800"/>
       <path fill="none" stroke="rgb(0,0,0)" stroke-width="50" d="M 5792,1800 L 5843,1800"/>
       <path fill="none" stroke="rgb(0,0,0)" stroke-width="50" d="M 5894,1800 L 5945,1800"/>
       <path fill="none" stroke="rgb(0,0,0)" stroke-width="50" d="M 5996,1800 L 6047,1800"/>
       <path fill="none" stroke="rgb(0,0,0)" stroke-width="50" d="M 6098,1800 L 6149,1800"/>
       <path fill="none" stroke="rgb(0,0,0)" stroke-width="50" d="M 6200,1800 L 6251,1800"/>
       <path fill="none" stroke="rgb(0,0,0)" stroke-width="50" d="M 6302,1800 L 6353,1800"/>
       <path fill="none" stroke="rgb(0,0,0)" stroke-width="50" d="M 6404,1800 L 6455,1800"/>
       <path fill="none" stroke="rgb(0,0,0)" stroke-width="50" d="M 6506,1800 L 6557,1800"/>
       <path fill="none" stroke="rgb(0,0,0)" stroke-width="50" d="M 6608,1800 L 6659,1800"/>
       <path fill="none" stroke="rgb(0,0,0)" stroke-width="50" d="M 6710,1800 L 6761,1800"/>
       <path fill="none" stroke="rgb(0,0,0)" stroke-width="50" d="M 6812,1800 L 6863,1800"/>
       <path fill="none" stroke="rgb(0,0,0)" stroke-width="50" d="M 6914,1800 L 6965,1800"/>
       <path fill="none" stroke="rgb(0,0,0)" stroke-width="50" d="M 7016,1800 L 7067,1800"/>
       <path fill="none" stroke="rgb(0,0,0)" stroke-width="50" d="M 7118,1800 L 7169,1800"/>
       <path fill="none" stroke="rgb(0,0,0)" stroke-width="50" d="M 7220,1800 L 7271,1800"/>
       <path fill="none" stroke="rgb(0,0,0)" stroke-width="50" d="M 7322,1800 L 7373,1800"/>
       <path fill="none" stroke="rgb(0,0,0)" stroke-width="50" d="M 7424,1800 L 7475,1800"/>
       <path fill="none" stroke="rgb(0,0,0)" stroke-width="50" d="M 7526,1800 L 7577,1800"/>
       <path fill="none" stroke="rgb(0,0,0)" stroke-width="50" d="M 7628,1800 L 7679,1800"/>
       <path fill="none" stroke="rgb(0,0,0)" stroke-width="50" d="M 7730,1800 L 7781,1800"/>
       <path fill="none" stroke="rgb(0,0,0)" stroke-width="50" d="M 7832,1800 L 7883,1800"/>
       <path fill="none" stroke="rgb(0,0,0)" stroke-width="50" d="M 7934,1800 L 7985,1800"/>
       <path fill="none" stroke="rgb(0,0,0)" stroke-width="50" d="M 8036,1800 L 8087,1800"/>
       <path fill="none" stroke="rgb(0,0,0)" stroke-width="50" d="M 8138,1800 L 8189,1800"/>
       <path fill="none" stroke="rgb(0,0,0)" stroke-width="50" d="M 8240,1800 L 8291,1800"/>
       <path fill="none" stroke="rgb(0,0,0)" stroke-width="50" d="M 8342,1800 L 8393,1800"/>
       <path fill="none" stroke="rgb(0,0,0)" stroke-width="50" d="M 8444,1800 L 8495,1800"/>
       <path fill="none" stroke="rgb(0,0,0)" stroke-width="50" d="M 8546,1800 L 8597,1800"/>
       <path fill="none" stroke="rgb(0,0,0)" stroke-width="50" d="M 8648,1800 L 8699,1800"/>
       <path fill="none" stroke="rgb(0,0,0)" stroke-width="50" d="M 8750,1800 L 8801,1800"/>
       <path fill="none" stroke="rgb(0,0,0)" stroke-width="50" d="M 8852,1800 L 8903,1800"/>
       <path fill="none" stroke="rgb(0,0,0)" stroke-width="50" d="M 8954,1800 L 9005,1800"/>
       <path fill="none" stroke="rgb(0,0,0)" stroke-width="50" d="M 9056,1800 L 9107,1800"/>
       <path fill="none" stroke="rgb(0,0,0)" stroke-width="50" d="M 9158,1800 L 9209,1800"/>
       <path fill="none" stroke="rgb(0,0,0)" stroke-width="50" d="M 9260,1800 L 9311,1800"/>
       <path fill="none" stroke="rgb(0,0,0)" stroke-width="50" d="M 9362,1800 L 9413,1800"/>
       <path fill="none" stroke="rgb(0,0,0)" stroke-width="50" d="M 9464,1800 L 9515,1800"/>
       <path fill="none" stroke="rgb(0,0,0)" stroke-width="50" d="M 9566,1800 L 9617,1800"/>
       <path fill="none" stroke="rgb(0,0,0)" stroke-width="50" d="M 9668,1800 L 9719,1800"/>
       <path fill="none" stroke="rgb(0,0,0)" stroke-width="50" d="M 9770,1800 L 9821,1800"/>
       <path fill="none" stroke="rgb(0,0,0)" stroke-width="50" d="M 9872,1800 L 9923,1800"/>
       <path fill="none" stroke="rgb(0,0,0)" stroke-width="50" d="M 9974,1800 L 10025,1800"/>
       <path fill="none" stroke="rgb(0,0,0)" stroke-width="50" d="M 10076,1800 L 10127,1800"/>
       <path fill="none" stroke="rgb(0,0,0)" stroke-width="50" d="M 10178,1800 L 10229,1800"/>
       <path fill="none" stroke="rgb(0,0,0)" stroke-width="50" d="M 10280,1800 L 10331,1800"/>
       <path fill="none" stroke="rgb(0,0,0)" stroke-width="50" d="M 10382,1800 L 10433,1800"/>
       <path fill="none" stroke="rgb(0,0,0)" stroke-width="50" d="M 10484,1800 L 10535,1800"/>
       <path fill="none" stroke="rgb(0,0,0)" stroke-width="50" d="M 10586,1800 L 10637,1800"/>
       <path fill="none" stroke="rgb(0,0,0)" stroke-width="50" d="M 10688,1800 L 10739,1800"/>
       <path fill="none" stroke="rgb(0,0,0)" stroke-width="50" d="M 10790,1800 L 10841,1800"/>
       <path fill="none" stroke="rgb(0,0,0)" stroke-width="50" d="M 10892,1800 L 10943,1800"/>
       <path fill="none" stroke="rgb(0,0,0)" stroke-width="50" d="M 10994,1800 L 11045,1800"/>
       <path fill="none" stroke="rgb(0,0,0)" stroke-width="50" d="M 11096,1800 L 11147,1800"/>
       <path fill="none" stroke="rgb(0,0,0)" stroke-width="50" d="M 11198,1800 L 11249,1800"/>
       <path fill="none" stroke="rgb(0,0,0)" stroke-width="50" d="M 11300,1800 L 11351,1800"/>
       <path fill="none" stroke="rgb(0,0,0)" stroke-width="50" d="M 11402,1800 L 11453,1800"/>
       <path fill="none" stroke="rgb(0,0,0)" stroke-width="50" d="M 11504,1800 L 11555,1800"/>
       <path fill="none" stroke="rgb(0,0,0)" stroke-width="50" d="M 11606,1800 L 11657,1800"/>
      </g>
     </g>
     <g class="com.sun.star.drawing.TextShape">
      <g id="id12">
       <text class="TextShape"><tspan class="TextParagraph" font-family="Arial, sans-serif" font-size="388px" font-weight="400"><tspan class="TextPosition" x="3051" y="1494"><tspan fill="rgb(0,0,0)" stroke="none">local</tspan></tspan></tspan></text>
      </g>
     </g>
     <g class="com.sun.star.drawing.TextShape">
      <g id="id13">
       <text class="TextShape"><tspan class="TextParagraph" font-family="Arial, sans-serif" font-size="388px" font-weight="400"><tspan class="TextPosition" x="8196" y="1495"><tspan fill="rgb(0,0,0)" stroke="none">GitHub</tspan></tspan></tspan></text>
      </g>
     </g>
    </g>
   </g>
  </g>
 </g>
</svg>