<?xml version="1.0" encoding="UTF-8" standalone="no"?>
<svg
   xmlns:ooo="http://xml.openoffice.org/svg/export"
   xmlns:dc="http://purl.org/dc/elements/1.1/"
   xmlns:cc="http://creativecommons.org/ns#"
   xmlns:rdf="http://www.w3.org/1999/02/22-rdf-syntax-ns#"
   xmlns:svg="http://www.w3.org/2000/svg"
   xmlns="http://www.w3.org/2000/svg"
   xmlns:sodipodi="http://sodipodi.sourceforge.net/DTD/sodipodi-0.dtd"
   xmlns:inkscape="http://www.inkscape.org/namespaces/inkscape"
   version="1.2"
   width="524.04541"
   height="350.13098"
   viewBox="0 0 14789.726 9881.4744"
   preserveAspectRatio="xMidYMid"
   clip-path="url(#presentation_clip_path)"
   xml:space="preserve"
   id="svg16427"
   inkscape:version="0.48.2 r9819"
   sodipodi:docname="git-staging-area.svg"
   style="fill-rule:evenodd;stroke-width:28.22200012;stroke-linejoin:round"><metadata
   id="metadata16666"><rdf:RDF><cc:Work
       rdf:about=""><dc:format>image/svg+xml</dc:format><dc:type
         rdf:resource="http://purl.org/dc/dcmitype/StillImage" /></cc:Work></rdf:RDF></metadata><sodipodi:namedview
   pagecolor="#ffffff"
   bordercolor="#666666"
   borderopacity="1"
   objecttolerance="10"
   gridtolerance="10"
   guidetolerance="10"
   inkscape:pageopacity="0"
   inkscape:pageshadow="2"
   inkscape:window-width="640"
   inkscape:window-height="480"
   id="namedview16664"
   showgrid="false"
   fit-margin-top="0"
   fit-margin-left="0"
   fit-margin-right="0"
   fit-margin-bottom="0"
   inkscape:zoom="0.23838384"
   inkscape:cx="344.75824"
   inkscape:cy="-106.08661"
   inkscape:window-x="0"
   inkscape:window-y="0"
   inkscape:window-maximized="0"
   inkscape:current-layer="svg16427" />
 <defs
   class="ClipPathGroup"
   id="defs16429">
  <clipPath
   id="presentation_clip_path"
   clipPathUnits="userSpaceOnUse">
   <rect
   x="0"
   y="0"
   width="21590"
   height="27940"
   id="rect16432" />
  </clipPath>
 </defs>
 <defs
   class="TextShapeIndex"
   id="defs16434">
  <g
   ooo:slide="id1"
   ooo:id-list="id3 id4 id5 id6 id7 id8 id9 id10 id11 id12 id13 id14 id15 id16 id17 id18 id19 id20 id21"
   id="g16436" />
 </defs>
 <defs
   class="EmbeddedBulletChars"
   id="defs16438">
  <g
   id="bullet-char-template(57356)"
   transform="scale(4.8828125e-4,-4.8828125e-4)">
   <path
   d="M 580,1141 1163,571 580,0 -4,571 580,1141 z"
   id="path16441"
   inkscape:connector-curvature="0" />
  </g>
  <g
   id="bullet-char-template(57354)"
   transform="scale(4.8828125e-4,-4.8828125e-4)">
   <path
   d="m 8,1128 1129,0 L 1137,0 8,0 8,1128 z"
   id="path16444"
   inkscape:connector-curvature="0" />
  </g>
  <g
   id="bullet-char-template(10146)"
   transform="scale(4.8828125e-4,-4.8828125e-4)">
   <path
   d="M 174,0 602,739 174,1481 1456,739 174,0 z m 1184,739 -1049,607 350,-607 699,0 z"
   id="path16447"
   inkscape:connector-curvature="0" />
  </g>
  <g
   id="bullet-char-template(10132)"
   transform="scale(4.8828125e-4,-4.8828125e-4)">
   <path
   d="M 2015,739 1276,0 717,0 l 543,543 -1086,0 0,393 1086,0 -543,545 557,0 741,-742 z"
   id="path16450"
   inkscape:connector-curvature="0" />
  </g>
  <g
   id="bullet-char-template(10007)"
   transform="scale(4.8828125e-4,-4.8828125e-4)">
   <path
   d="m 0,-2 c -7,16 -16,29 -25,39 l 381,530 c -94,256 -141,385 -141,387 0,25 13,38 40,38 9,0 21,-2 34,-5 21,4 42,12 65,25 l 27,-13 111,-251 280,301 64,-25 24,25 c 21,-10 41,-24 62,-43 C 886,937 835,863 770,784 769,783 710,716 594,584 L 774,223 c 0,-27 -21,-55 -63,-84 l 16,-20 C 717,90 699,76 672,76 641,76 570,178 457,381 L 164,-76 c -22,-34 -53,-51 -92,-51 -42,0 -63,17 -64,51 -7,9 -10,24 -10,44 0,9 1,19 2,30 z"
   id="path16453"
   inkscape:connector-curvature="0" />
  </g>
  <g
   id="bullet-char-template(10004)"
   transform="scale(4.8828125e-4,-4.8828125e-4)">
   <path
   d="M 285,-33 C 182,-33 111,30 74,156 52,228 41,333 41,471 c 0,78 14,145 41,201 34,71 87,106 158,106 53,0 88,-31 106,-94 l 23,-176 c 8,-64 28,-97 59,-98 l 735,706 c 11,11 33,17 66,17 42,0 63,-15 63,-46 l 0,-122 c 0,-36 -10,-64 -30,-84 L 442,47 C 390,-6 338,-33 285,-33 z"
   id="path16456"
   inkscape:connector-curvature="0" />
  </g>
  <g
   id="bullet-char-template(9679)"
   transform="scale(4.8828125e-4,-4.8828125e-4)">
   <path
   d="M 813,0 C 632,0 489,54 383,161 276,268 223,411 223,592 c 0,181 53,324 160,431 106,107 249,161 430,161 179,0 323,-54 432,-161 108,-107 162,-251 162,-431 0,-180 -54,-324 -162,-431 C 1136,54 992,0 813,0 z"
   id="path16459"
   inkscape:connector-curvature="0" />
  </g>
  <g
   id="bullet-char-template(8226)"
   transform="scale(4.8828125e-4,-4.8828125e-4)">
   <path
   d="m 346,457 c -73,0 -137,26 -191,78 -54,51 -81,114 -81,188 0,73 27,136 81,188 54,52 118,78 191,78 73,0 134,-26 185,-79 51,-51 77,-114 77,-187 0,-75 -25,-137 -76,-188 -50,-52 -112,-78 -186,-78 z"
   id="path16462"
   inkscape:connector-curvature="0" />
  </g>
  <g
   id="bullet-char-template(8211)"
   transform="scale(4.8828125e-4,-4.8828125e-4)">
   <path
   d="m -4,459 1139,0 0,147 -1139,0 0,-147 z"
   id="path16465"
   inkscape:connector-curvature="0" />
  </g>
 </defs>
 <defs
   class="TextEmbeddedBitmaps"
   id="defs16467" />
 <g
   id="g16469"
   transform="translate(-1065.1562,-1094.5254)">
  <g
   id="id2"
   class="Master_Slide">
   <g
   id="bg-id2"
   class="Background" />
   <g
   id="bo-id2"
   class="BackgroundObjects" />
  </g>
 </g>
 <g
   class="SlideGroup"
   id="g16474"
   transform="translate(-1065.1562,-1094.5254)">
  <g
   id="g16476">
   <g
   id="id1"
   class="Slide"
   clip-path="url(#presentation_clip_path)">
    <g
   class="Page"
   id="g16479">
     <g
   class="com.sun.star.drawing.TextShape"
   id="g16481">
      <g
   id="id3">
       <text
   class="TextShape"
   id="text16484"><tspan
     class="TextParagraph"
     font-size="388px"
     font-weight="400"
     id="tspan16486"
     style="font-size:388px;font-weight:400;font-family:'Arial, sans-serif'"><tspan
       class="TextPosition"
       x="3700"
       y="1377"
       id="tspan16488"><tspan
         id="tspan16490"
         style="fill:#000000;stroke:none">Working Files</tspan></tspan></tspan><tspan
     class="TextParagraph"
     font-size="388px"
     font-weight="400"
     id="tspan16492"
     style="font-size:388px;font-weight:400;font-family:'Arial, sans-serif'"><tspan
       class="TextPosition"
       x="2950"
       y="1809"
       id="tspan16494"><tspan
         id="tspan16496"
         style="fill:#000000;stroke:none">(what we actually see)</tspan></tspan></tspan></text>

      </g>
     </g>
     <g
   class="com.sun.star.drawing.TextShape"
   id="g16498">
      <g
   id="id4">
       <text
   class="TextShape"
   id="text16501"><tspan
     class="TextParagraph"
     font-size="388px"
     font-weight="400"
     id="tspan16503"
     style="font-size:388px;font-weight:400;font-family:'Arial, sans-serif'"><tspan
       class="TextPosition"
       x="8348"
       y="1377"
       id="tspan16505"><tspan
         id="tspan16507"
         style="fill:#000000;stroke:none">Staging Area</tspan></tspan></tspan><tspan
     class="TextParagraph"
     font-size="388px"
     font-weight="400"
     id="tspan16509"
     style="font-size:388px;font-weight:400;font-family:'Arial, sans-serif'"><tspan
       class="TextPosition"
       x="7950"
       y="1809"
       id="tspan16511"><tspan
         id="tspan16513"
         style="fill:#000000;stroke:none">(ready to commit)</tspan></tspan></tspan></text>

      </g>
     </g>
     <g
   class="com.sun.star.drawing.TextShape"
   id="g16515">
      <g
   id="id5">
       <text
   class="TextShape"
   id="text16518"><tspan
     class="TextParagraph"
     font-size="388px"
     font-weight="400"
     id="tspan16520"
     style="font-size:388px;font-weight:400;font-family:'Arial, sans-serif'"><tspan
       class="TextPosition"
       x="13180"
       y="1377"
       id="tspan16522"><tspan
         id="tspan16524"
         style="fill:#000000;stroke:none">Repository</tspan></tspan></tspan><tspan
     class="TextParagraph"
     font-size="388px"
     font-weight="400"
     id="tspan16526"
     style="font-size:388px;font-weight:400;font-family:'Arial, sans-serif'"><tspan
       class="TextPosition"
       x="12350"
       y="1809"
       id="tspan16528"><tspan
         id="tspan16530"
         style="fill:#000000;stroke:none">(permanent storage)</tspan></tspan></tspan></text>

      </g>
     </g>
     <g
   class="com.sun.star.drawing.CustomShape"
   id="g16532">
      <g
   id="id6">
       <path
   d="m 4171,2250 1400,0 0,1575 -175,225 -1225,0 0,-1800 z"
   id="path16535"
   inkscape:connector-curvature="0"
   style="fill:none;stroke:#000000;stroke-width:50" />
       <path
   d="m 5396,4050 46,-225 c 44,33 42,14 129,0 l -175,225 z"
   id="path16537"
   inkscape:connector-curvature="0"
   style="fill:none;stroke:#000000;stroke-width:50" />
      </g>
     </g>
     <g
   class="com.sun.star.drawing.CustomShape"
   id="g16539">
      <g
   id="id7">
       <path
   d="m 4171,4551 1400,0 0,1575 -175,225 -1225,0 0,-1800 z"
   id="path16542"
   inkscape:connector-curvature="0"
   style="fill:none;stroke:#000000;stroke-width:50" />
       <path
   d="m 5396,6351 46,-225 c 44,33 42,14 129,0 l -175,225 z"
   id="path16544"
   inkscape:connector-curvature="0"
   style="fill:none;stroke:#000000;stroke-width:50" />
      </g>
     </g>
     <g
   class="com.sun.star.drawing.TextShape"
   id="g16546">
      <g
   id="id8">
       <text
   class="TextShape"
   id="text16549"><tspan
     class="TextParagraph"
     font-size="388px"
     font-weight="400"
     id="tspan16551"
     style="font-size:388px;font-weight:400;font-family:'Arial, sans-serif'"><tspan
       class="TextPosition"
       x="1050"
       y="3285"
       id="tspan16553"><tspan
         id="tspan16555"
         style="fill:#000000;stroke:none">intro.txt</tspan></tspan></tspan></text>

      </g>
     </g>
     <g
   class="com.sun.star.drawing.TextShape"
   id="g16557">
      <g
   id="id9">
       <text
   class="TextShape"
   id="text16560"><tspan
     class="TextParagraph"
     font-size="388px"
     font-weight="400"
     id="tspan16562"
     style="font-size:388px;font-weight:400;font-family:'Arial, sans-serif'"><tspan
       class="TextPosition"
       x="1050"
       y="5586"
       id="tspan16564"><tspan
         id="tspan16566"
         style="fill:#000000;stroke:none">methods.txt</tspan></tspan></tspan></text>

      </g>
     </g>
     <g
   class="com.sun.star.drawing.CustomShape"
   id="g16568">
      <g
   id="id10">
       <path
   d="m 4171,6851 1400,0 0,1575 -175,225 -1225,0 0,-1800 z"
   id="path16571"
   inkscape:connector-curvature="0"
   style="fill:none;stroke:#000000;stroke-width:50" />
       <path
   d="m 5396,8651 46,-225 c 44,33 42,14 129,0 l -175,225 z"
   id="path16573"
   inkscape:connector-curvature="0"
   style="fill:none;stroke:#000000;stroke-width:50" />
      </g>
     </g>
     <g
   class="com.sun.star.drawing.TextShape"
   id="g16575">
      <g
   id="id11">
       <text
   class="TextShape"
   id="text16578"><tspan
     class="TextParagraph"
     font-size="388px"
     font-weight="400"
     id="tspan16580"
     style="font-size:388px;font-weight:400;font-family:'Arial, sans-serif'"><tspan
       class="TextPosition"
       x="1050"
       y="7886"
       id="tspan16582"><tspan
         id="tspan16584"
         style="fill:#000000;stroke:none">results.txt</tspan></tspan></tspan></text>

      </g>
     </g>
     <g
   class="com.sun.star.drawing.CustomShape"
   id="g16586">
      <g
   id="id12">
       <path
   d="m 4171,9151 1400,0 0,1575 -175,225 -1225,0 0,-1800 z"
   id="path16589"
   inkscape:connector-curvature="0"
   style="fill:none;stroke:#000000;stroke-width:50" />
       <path
   d="m 5396,10951 46,-225 c 44,33 42,14 129,0 l -175,225 z"
   id="path16591"
   inkscape:connector-curvature="0"
   style="fill:none;stroke:#000000;stroke-width:50" />
      </g>
     </g>
     <g
   class="com.sun.star.drawing.TextShape"
   id="g16593">
      <g
   id="id13">
       <text
   class="TextShape"
   id="text16596"><tspan
     class="TextParagraph"
     font-size="388px"
     font-weight="400"
     id="tspan16598"
     style="font-size:388px;font-weight:400;font-family:'Arial, sans-serif'"><tspan
       class="TextPosition"
       x="1050"
       y="10186"
       id="tspan16600"><tspan
         id="tspan16602"
         style="fill:#000000;stroke:none">conclusion.txt</tspan></tspan></tspan></text>

      </g>
     </g>
     <g
   class="com.sun.star.drawing.CustomShape"
   id="g16604">
      <g
   id="id14">
       <path
   d="m 8871,4551 1400,0 0,1575 -175,225 -1225,0 0,-1800 z"
   id="path16607"
   inkscape:connector-curvature="0"
   style="fill:none;stroke:#000000;stroke-width:50" />
       <path
   d="m 10096,6351 46,-225 c 44,33 42,14 129,0 l -175,225 z"
   id="path16609"
   inkscape:connector-curvature="0"
   style="fill:none;stroke:#000000;stroke-width:50" />
      </g>
     </g>
     <g
   class="com.sun.star.drawing.CustomShape"
   id="g16611">
      <g
   id="id15">
       <path
   d="m 8871,6851 1400,0 0,1575 -175,225 -1225,0 0,-1800 z"
   id="path16614"
   inkscape:connector-curvature="0"
   style="fill:none;stroke:#000000;stroke-width:50" />
       <path
   d="m 10096,8651 46,-225 c 44,33 42,14 129,0 l -175,225 z"
   id="path16616"
   inkscape:connector-curvature="0"
   style="fill:none;stroke:#000000;stroke-width:50" />
      </g>
     </g>
     <g
   class="com.sun.star.drawing.CustomShape"
   id="g16618">
      <g
   id="id16">
       <path
   d="m 13571,4551 1400,0 0,1575 -175,225 -1225,0 0,-1800 z"
   id="path16621"
   inkscape:connector-curvature="0"
   style="fill:none;stroke:#000000;stroke-width:50" />
       <path
   d="m 14796,6351 46,-225 c 44,33 42,14 129,0 l -175,225 z"
   id="path16623"
   inkscape:connector-curvature="0"
   style="fill:none;stroke:#000000;stroke-width:50" />
      </g>
     </g>
     <g
   class="com.sun.star.drawing.CustomShape"
   id="g16625">
      <g
   id="id17">
       <path
   d="m 13571,6851 1400,0 0,1575 -175,225 -1225,0 0,-1800 z"
   id="path16628"
   inkscape:connector-curvature="0"
   style="fill:none;stroke:#000000;stroke-width:50" />
       <path
   d="m 14796,8651 46,-225 c 44,33 42,14 129,0 l -175,225 z"
   id="path16630"
   inkscape:connector-curvature="0"
   style="fill:none;stroke:#000000;stroke-width:50" />
      </g>
     </g>
     <g
   class="com.sun.star.drawing.CustomShape"
   id="g16632">
      <g
   id="id18">
       <path
   d="m 6300,6375 1500,0 0,-275 501,550 -501,551 0,-276 -1500,0 0,-550 z"
   id="path16635"
   inkscape:connector-curvature="0"
   style="fill:none;stroke:#000000;stroke-width:50" />
      </g>
     </g>
     <g
   class="com.sun.star.drawing.TextShape"
   id="g16637">
      <g
   id="id19">
       <text
   class="TextShape"
   id="text16640"><tspan
     class="TextParagraph"
     font-size="388px"
     font-weight="400"
     id="tspan16642"
     style="font-size:388px;font-weight:400;font-family:'Arial, sans-serif'"><tspan
       class="TextPosition"
       x="6717"
       y="5787"
       id="tspan16644"><tspan
         id="tspan16646"
         style="fill:#000000;stroke:none">git add</tspan></tspan></tspan></text>

      </g>
     </g>
     <g
   class="com.sun.star.drawing.CustomShape"
   id="g16648">
      <g
   id="id20">
       <path
   d="m 11019,6376 1500,0 0,-275 501,550 -501,551 0,-276 -1500,0 0,-550 z"
   id="path16651"
   inkscape:connector-curvature="0"
   style="fill:none;stroke:#000000;stroke-width:50" />
      </g>
     </g>
     <g
   class="com.sun.star.drawing.TextShape"
   id="g16653">
      <g
   id="id21">
       <text
   class="TextShape"
   id="text16656"><tspan
     class="TextParagraph"
     font-size="388px"
     font-weight="400"
     id="tspan16658"
     style="font-size:388px;font-weight:400;font-family:'Arial, sans-serif'"><tspan
       class="TextPosition"
       x="11133"
       y="5788"
       id="tspan16660"><tspan
         id="tspan16662"
         style="fill:#000000;stroke:none">git commit</tspan></tspan></tspan></text>

      </g>
     </g>
    </g>
   </g>
  </g>
 </g>
</svg>